<svg xmlns="http://www.w3.org/2000/svg" viewBox="0 0 6607.36 5809.73"><defs><style>.cls-1{fill:#fff;}</style></defs><title>logo-headRecurso 2</title><g id="Capa_2" data-name="Capa 2"><g id="Capa_1-2" data-name="Capa 1"><path class="cls-1" d="M3265.62,3762.18c1318,21.14,2453.11,291.9,3265.74,19.1-1048,152.9-1885-56.1-3264.83-78.22S706.25,3741.47,0,3953.44C793,3814.31,1947.66,3741,3265.62,3762.18Z"/><path class="cls-1" d="M4420,778.08c29.33-9.56,59.76-15.7,85.93-32.75,5.37-3.5,1.06-12.74-4.93-11.46-30.21,6.45-57.38,21.52-84.74,35.59C4410.78,772.25,4414.34,779.93,4420,778.08Z"/><path class="cls-1" d="M5022.42,751.89c3.42-4.25,2.08-10.85-2.06-14-10.22-7.83-23.26-7.48-35.56-9.06-15.49-2-31-8.52-44.61-16.09-11.79-6.56-19.18,11.55-10.66,19.4C4949.79,750.83,4999.13,780.87,5022.42,751.89Z"/><path class="cls-1" d="M4245.55,1695.13c7.62,5.9,20.59-3.24,15.32-12.47-12.41-21.79-29.42-40.28-47.46-57.53-6-5.74-14,3.93-9.57,10.12C4218.28,1655.5,4225.51,1679.6,4245.55,1695.13Z"/><path class="cls-1" d="M4451.62,1816.87c-8.08-11.62-24.88.15-20.16,12.46,19.72,51.32,71.87,75.77,120.28,45.37,9.18-5.77,4.13-22.83-6.45-23C4508.83,1851.08,4474.58,1849.9,4451.62,1816.87Z"/><path class="cls-1" d="M4820.25,1865.87c-25.68-3.11-50.76,5.17-76.23,4.27-4.51-.17-9.15,5.46-5.22,9.55,11.19,11.64,22.82,20.18,38.68,23.62,18.78,4.1,38.69-2.94,51.28-17.32C4835.16,1878.69,4828.93,1866.9,4820.25,1865.87Z"/><path class="cls-1" d="M5064.12,1755.31c-22.72,29.35-47.59,51.44-84,60.24-13,3.13-10.47,22.3,3.07,21,45.56-4.47,84.5-24.72,104-68.1C5093.72,1754,5073.24,1743.5,5064.12,1755.31Z"/><path class="cls-1" d="M5237.14,1604.42c-8.24,7.08-11.82,14.41-15,24.74-2.81,9-4.51,18.36-6.18,27.64-1.55,8.66,10.52,10.78,13.92,3.63a225.59,225.59,0,0,1,10.86-20.7c4.78-7.82,9.75-14.1,13.12-22.74C5257.72,1607,5245.49,1597.27,5237.14,1604.42Z"/><path class="cls-1" d="M4567.23,1793.82c22,7.61,61.1,20.12,73-9.94,10.83-27.4-21.76-39.21-42.12-39.94-26.09-.94-52-6.74-76.91-14.43-13.14-4-24.77,10.09-16,22C4520.78,1772.83,4542.69,1785.36,4567.23,1793.82Z"/><path class="cls-1" d="M4365.6,1462a7.76,7.76,0,0,0,.26.76C4365.76,1462.54,4365.69,1462.28,4365.6,1462Z"/><path class="cls-1" d="M4373.09,1474.67c-.63-1-1.3-1.92-1.91-3C4373.29,1475.36,4373.63,1475.77,4373.09,1474.67Z"/><path class="cls-1" d="M5118.54,1560.83c-3.74,4.07-6.71,9.36-9.61,14.68-28.07-23.47-55.11-48.44-82.23-73.41,1.12-.23,2.25-.48,3.37-.83.85-.13,1.7-.26,2.55-.42,24.87,6.51,52.32-9.35,62.82-32.53,11.8-26-3.46-52.82-18.28-73.38-16.27-22.58-49-18.71-65,1.29-3.53,4.4-7.19,8.88-10.78,13.48-49.6-10.87-98.54-26.61-146.44-43.44a353.74,353.74,0,0,0-89.23-33.69s-35.1-14.82-43.79-21.59-9.34-9.15-9.34-9.15c-.21-.59-.46-1.12-.69-1.67q4.36-8.07,8.43-16.34c12.74-26.43,28.55-39.11,34.59-48.42,62.12-66.4,123.84-134,153.78-217.71a34.91,34.91,0,0,0,10,2.21c1.44.06,2.9.1,4.34.11,6.41.09,12.86.06,19.25-.37,7.85-.54,15.06-2.9,22.61-5.26,13.86-4.35,28.05-17.71,32.48-31.93,2.86-9.15,4.66-18.13,2.69-27.78-2.46-12-5.06-16.16-11.19-26.28a36,36,0,0,0-4.93-6.26c-4.37-4.47-8.88-9.19-14-12.86-17.36-12.35-40.46-19.81-61.41-14.1,7.77-31.68,12.78-63.6,13.68-95.17,4,1.85,8,3.63,12.07,5.21,15.44,5.93,50.07,14,57.53-7.89,7.72-22.57-14.3-30.21-32.26-28.42-23.73,2.37-48.21-1-70.9-8.13-8.33-2.6-14.88,8-7.57,13.8a211.56,211.56,0,0,0,34.83,22.31A855,855,0,0,1,4892,903c-10.61,7.2-19.36,17.82-22.9,30.29-2.11,7.48-3.94,14.45-4,22.14a100.92,100.92,0,0,0,2.05,22.19c-13.1,35.13-27.84,69.65-43.65,103.62-20.74,44.58-43.92,90.11-70.88,133-1.64,1.73-3.29,3.5-4.93,5.23,22-61,35.62-125.8,43.5-187.66,13.43-105.22,7.85-219.75-32.51-318.94,9-1.65,17.28-4.9,24.1-10.4,7.66-6.2,5.77-19-3.32-22.67-11.58-4.67-22.27-2.82-34.22-1.15-15.54,2.21-31.17,4.78-46.81,5.83-14.45,1-11.72,21.1.31,24,15,3.54,34.19,7,51.93,5.44,60.45,178,40.06,367-31.74,536.39-3.85,4.15-7.62,8.39-11.46,12.58-8.38-.44-16.62-1.41-24.79-2.67q-1.61-8.82-3.27-17.61c8.57-38.09,13.18-77.45,15.13-113.91,2.27-42.49-.52-88.31-15.79-128.61a56.3,56.3,0,0,0,18.39-9.93,58,58,0,0,0,17.17-23.56c5.58-11.23,9-27.18,6.46-39.71-1.54-7.78-3.44-15-5.72-22.7,1.2,4.21,2.39,8.39,3.59,12.62-.1-.38-.19-.75-.28-1.11-1.17-4.11-2.32-8.21-3.5-12.32a47.49,47.49,0,0,0-15-19c-10.31-7.77-22.32-10.24-34.9-8.85a51.19,51.19,0,0,0-12.74,3.2A552.83,552.83,0,0,0,4637,805.36c17.84,2.13,35.86.52,52.1-8.57,24.55-13.76,8.81-47.37-17.26-39.63-15.39,4.56-30.61,9.51-46.25,12.93-.1-.28-13.13,2.52-16.57,3-12.3,1.65-15.66,21.56-2.93,25.44a197.37,197.37,0,0,0,22.33,5.54,589.05,589.05,0,0,1,13.76,79.38,65.55,65.55,0,0,0-7.17,5.09c-1.11.9-2.14,1.92-3.2,2.88-5.77,5.34-8.83,8.95-11.62,13.43.18-.35.36-.69.55-1a34.75,34.75,0,0,1-4.91,6.81q-3.55,6.45-7.1,12.89a58.44,58.44,0,0,0,18.94,67.94,56.08,56.08,0,0,0,19.09,9.3q-.23,16.64-.77,33.35c-1.22,38.56-2.94,77.08-3.6,115.66-.4,22.62-1.28,46.62.07,70.13a18.65,18.65,0,0,0-2,1.53C4613.16,1158,4571,1097,4531,1042.21c-7.29-10-14.85-19.79-22.53-29.5,20.27-35.53-2.19-94.18-54.38-86.28a57.2,57.2,0,0,0-18.78,6.15q-15.43-14.34-31.93-27.43c13.31-9,24.86-19.74,29.62-34.89,3.61-11.44-4.66-25.48-17.79-22.87-29.56,5.84-52.76,34.9-70.72,58.14-11.67,15.1,8.13,30.14,22,21.49,9.43-5.91,20.44-11.54,30.87-18q15.19,14.2,29.72,29c-37.17,31.08-16.22,108.74,43.32,99.72a57.19,57.19,0,0,0,19.5-6.55c37.9,46.63,63.6,102.72,89.84,156.78,6.32,13,13.5,29.46,21.77,46.42-53.85-25.68-102.68-65.23-147.18-104.77-75.15-66.81-139.33-145.18-213.59-212.8,14.34-14.54,27.46-30.62,40.49-46.9,6-7.48-5-18.48-12-11.76-32.21,30.93-64.76,61.41-95,94.16-3.9,4.23,1.94,10.63,6.66,8.45,22-10.23,40.45-24.64,57.16-41.19,74.18,77.35,144.37,158.59,224.54,229.78,41.11,36.51,92.42,78,147.93,102.62,1.42,2.64,2.83,5.28,4.31,7.87-.87,0-7.82,11.41-9,13.16-25.75-6.44-51.9-11.35-77.8-17-52.47-11.39-98.77-31.67-139.64-63.83.5-1.35,1-2.67,1.57-4,1.66-4.16,8.14-16.36-.29-1.27,5.19-9.26,8.61-17.44,7-28.45a38.62,38.62,0,0,0-14.85-25.16c-17.51-13.18-39.22-7.72-52.75,8-9.33,10.85-16.6,24.2-23,37.46-.1.11-.18.24-.28.37-22.51-15.23-44.61-31.1-66.38-47.37,2.87-3.33,5.7-6.68,8.42-10.15,16.17-20.67,29-40.56,20.85-67.54-2.52-8.37-14.49-15-22.8-12.74-22.28,6.19-31.36,20.69-43.1,39.57a520.51,520.51,0,0,1-36.75,52.32c-18.42,22.86,14.64,54.92,36.49,35.67a380.84,380.84,0,0,0,33.75-33.48q31.58,26.66,65,50.54c-10.9,21-2.59,51.6,21.27,61.34a41.37,41.37,0,0,0,50-14.92c3.16,1.89,6.29,3.81,9.48,5.66,37.42,21.77,85.93,53.34,177.86,60.72-126.47-3.24-251.7,15.84-377.54-5.43-1.61-7-3.3-13.93-5.18-20.88-4.2-15.44-24.53-12.38-24.09,3.65.69,25.88,5.58,47.1,18.59,69.57,5.77,10,24.07,7.15,21-6.18-3.31-14.25-6.24-28.47-9.47-42.65,125.66,26.11,255.49,16.76,382.81,12,3.78-.13-7.54,4-12.61,7-34.37,20.53-71.76,35.61-109.12,49.43-2.73,1-5.5,1.94-8.24,2.92a42.47,42.47,0,0,0-31,1.63q-7.07,3.17-14,6.63a164.41,164.41,0,0,0-14.9,8.91,28.93,28.93,0,0,0-4.88,4.14c-37.66,11.61-75.53,22.78-112.23,36.77-2.34-2.37-4.79-4.77-7.1-7.43a102.26,102.26,0,0,1-18.6-30.85c-3.93-10.7-22.79-8.65-22.69,3.44.14,15.32,3.75,28.24,11,41.67,7.2,13.25,18.74,33.61,36.25,30.18,6.24-1.22,12.6-6.42,12.84-13.42a24.57,24.57,0,0,0-5.57-16.73c32-8.35,64.07-16.95,95.88-26.24-2.07,6.29-2.9,12.85-1.82,18.52a75.18,75.18,0,0,0,1.5,19.39,117.17,117.17,0,0,0,5.12,17.1c-.73-2.61,6.17,9.9,7.5,12.65,9.32,14.38,22.94,23.84,41.1,21.09a39.32,39.32,0,0,0,14.82-5.34l.57-.09a55.13,55.13,0,0,0,35.77-20.64c11.86-14.74,12.14-32.62,7.9-49.77,44.67-4.92,91.79-22,129.44-48.93-28,49.47-63.6,105.26-68.44,112.5-28,41.91-57.67,82.75-88.54,122.55-16.24,20.93-33.13,43.26-52.2,62.48a83.34,83.34,0,0,1-8.35-7.51,241,241,0,0,1-26.66-32.88c-8.29-12.53-29.88-2.71-26.67,11.88,7,31.93,22.18,69.14,49.85,88.35,29,20.11,58.24-21.09,32.11-44.07-4.7-4.13-9.72-7.69-14.66-11.36,23.48-21.14,43.58-47,63.13-71.13,38-47,72.8-96.82,105.95-147.47,3.81-5.85,29.15-43.53,50-82a57.69,57.69,0,0,0,31.37,13.29c0,8.27,0,14.51-.08,16.92-1.2,28.21-3.11,92.54-19.4,135.82-2.21-3.69-4.51-7.31-7-10.76-15-20.56-45.59-17.75-60.19,1.2-14.28,18.5-30.14,38.21-28.25,63.12.89,11.82,19.67,39.24,37.86,45.62,14.64,5.14,27.73,3.06,41.38-1.06a47.45,47.45,0,0,0,11.89-5.56c-4.29,2.67,1.39-.83,3.75-1.92a40.84,40.84,0,0,0,15.68-13.19c-14,40.77-31.57,81.67-49.66,123-.77,1.75,4.17.68,5-1,21.24-44.89,52.87-106.31,71.57-170.37a1403.64,1403.64,0,0,1-6.84,180.57c-83.06,788.59-555.24,1861.09-620.3,2009.63-11.38,26,27.86,44.8,39.24,18.84,68.27-155.86,529.22-1216.44,625.28-2036.21,8.48-72.34,9.71-144.71,5.9-216.93,1.48,4.39,3,8.8,4.39,13.17,29.4,92.7,51,188.65,47.62,286.59-.11,3,4.31,3.63,4.6.57,8.35-87-5-172.13-28.91-255.71-9.84-34.36-20.7-68.38-31.81-102.32q-3.65-41.4-9.15-82.69c16.66,25.62,34.72,50.41,52.47,74.88,23.2,32,46.72,64,70.72,95.54-10.59,4.05-20.19,13-23.35,23.44-3.32,11-9.79,74.38,35.4,80.28,11,1.43,17.86-.75,28.18-4.12,7.91-2.6,13.75-7.35,19.22-12.94,10.48,28.84,19,59.17,21.46,89.46l-1.3.41c-10,3.1-19.93,6.18-29.8,9.68a152,152,0,0,0-33.43,16.31c-7.61,5-8.36,12.3-1.92,18.54,9.6,9.31,23.83,8.43,34,8.69s19.91.22,29.9-.32c22.31-1.18,50.86-1.27,68.14-16.69,14-12.47,11.23-35.22-6.27-42.81-18.9-8.19-36.13-1.5-54.47,4.61-.06-32.55-6.61-65.78-17.06-98.53.48-.71.94-1.41,1.39-2.15q8.66-15.84,2-3.55a39.11,39.11,0,0,0,7.24-18.39c.79-6.72-.32-11.12-1.73-17.1-2.89-12.36-10.06-26-23.19-29.84-5.51-1.63-10.77-3-16-4.18-17.75-37.24-38.14-72.56-56.8-104.09a774.76,774.76,0,0,0-70.09-100.23c50.33,35.18,94.1,80.87,133.42,128.5,65.68,79.58,121.7,169.87,165.87,263.49a1.48,1.48,0,0,0,2.69-1.22c-38.34-100.95-96.72-194.52-164.18-277.88-29.06-35.92-63.62-74.77-102.7-107,16.95,6.5,33.94,12.87,51,18.93,12.71,4.48,25.51,8.94,38.39,13.23,11.22,6.62,22.14,13.67,32.76,21,32,22.2,61.57,47.64,91,73.27,5.37,8.3,11.49,14.14,20.23,17.62,32.5,28.21,65.44,55.83,101.86,78.77-1.6,2.92-3.22,5.78-5,8.37a187.73,187.73,0,0,1-16.83,21.28c-7.62,8.31,3.77,20.65,13,16.47a232.2,232.2,0,0,0,27.07-15.07c9.48-5.93,21.66-13.11,27.58-22.94C5167.67,1562.52,5137.28,1540.32,5118.54,1560.83Zm-287-465.83c14.71-30.53,29.6-62.91,43-96.32a37.53,37.53,0,0,0,8.54,9.14,36.65,36.65,0,0,0,16.68,6.87c-25.34,58.81-64,108.15-106.17,155.22C4807,1145,4819.58,1119.76,4831.49,1095Zm-310.16,192.39c-49-9.5-100.6-37.61-144.34-63.35a47,47,0,0,0,3.26-11.55c1-2.63,2.08-5.22,3.13-7.84,32.67,29.5,71.49,49.06,115.33,62.27,25.31,7.63,51.29,12.76,77.07,18.36,4.92,1.07,10,2.49,15.12,4.06-2.22,2-4.47,3.84-6.79,5.69C4562.68,1294.55,4542.19,1291.43,4521.33,1287.39Zm-51.73,120.52c-1.87-5.19-4-10.22-6.24-15a47.51,47.51,0,0,0-11.4-15.28c4.58-1.64,9.17-3.23,13.73-4.92,39.33-14.57,78-31.7,112.83-55.44,3.86-2.64,8.79-6.1,14-10.13,2.76,0,5.53.11,8.28.08a58.19,58.19,0,0,0-3.14,28.78,57.37,57.37,0,0,0,3.63,13.19C4562.91,1379.93,4519,1398.66,4469.6,1407.91Zm187.34-269.22c.56-42.88,2.39-85.74,2.74-128.65,0-2.47,0-4.94,0-7.4a53.55,53.55,0,0,0,7.72-.22c22.82,69.41,14,143.68-2.65,216a24.54,24.54,0,0,0-5.58-1.57C4658.41,1190.74,4656.59,1164.54,4656.94,1138.69Zm-34.69,104.8c-16.43-27.24-30.33-56.22-44.85-84.45-23.23-45.13-47.35-93.61-82.37-131.11a49.57,49.57,0,0,0,5.88-5.16c7,9,13.83,18,20.53,27.28,42.33,58.45,73.79,123.37,113.09,183.46a23.11,23.11,0,0,0,.32,5.94c.4,2.08.76,4.16,1.15,6.24a14.36,14.36,0,0,1-1.49.28C4626.46,1243.52,4630.1,1246.61,4622.25,1243.49Zm32.36,343.06a33.08,33.08,0,0,0-9.52-22.38c-2.1-2.5-2.94-3.26-2.75-2.6-1.42-2.73-2.74-5.54-4.06-8.3-.45-.91-1-1.79-1.44-2.7,15.29-32.72,21.69-78.46,24.94-99.23.83-5.33,1.46-10.72,2-16.12q4.11,40.79,6.39,81.73A497,497,0,0,1,4654.61,1586.55ZM4795.79,1457a976,976,0,0,1,51.48,94.67c-1.89-.13-3.74-.36-5.67-.43-18.77-28.88-39.25-56.74-58.9-84.89-26.22-37.55-50.61-76-75-114.6.74-1.27,1.36-2.49,2-3.65a4.7,4.7,0,0,0,5.64,2.4c1.68-.53,3.35-1.12,5-1.66C4749.47,1383,4774.09,1422.09,4795.79,1457Zm183.74-5.85a45.43,45.43,0,0,0-.8,7.41c-21.53-19-43.49-37.53-66.4-54.69,26.4,7.54,53.09,14,80.06,18.19C4986.43,1431.07,4981.58,1440.67,4979.53,1451.17Z"/><path class="cls-1" d="M5527,1076.88c-1.81-7.37-52.94,41.29-122.13,60.16-19.85,5.41-74.56,18.41-123,26.79-50.72,8.77-193.83,35.88-193.83,35.88-3.63,3.16-2.33,4,4.15,7.9s93-15.83,144.59-25.59,149.61-23.19,174.14-30.87C5541.24,1110.36,5528.8,1084.26,5527,1076.88Z"/><path class="cls-1" d="M5116.08,1125.25s130.59-115.61,313.33-221.84c43.18-25.11,101.1-54.34,149.69-79,41.05-17.08,95.65-43.13,161-82,7.83-4.66,15.68-16.37-1.51,58.11-7.55,32.73,65.71-75.44,69.8-69.33,21.15,31.59,25.25,124,25.25,124s58.63-101.81,53.83-141.79-10.81-51.17-10.81-51.17S5863,636,5874,629.43s52.66-29.73,36.1-30.7c-34.89-2-22.6-13.75-75,16.61-22.48,13-81.75,57.09-222.25,97.24-74.34,21.24,120.68-22.23,123.16-18.62,12.1,17.59-142.44,94.9-210.52,136.06-34.74,18.46-70,37.55-96.06,52.44-151.71,86.79-291.53,225.13-310.12,232.09S5116.08,1125.25,5116.08,1125.25Z"/><path class="cls-1" d="M6320.31,308.32s-21.44-12.57-42.13-1.32-34,65.59-34,65.59a107.92,107.92,0,0,0-9.53-23.47c11.76-28.8,19.33-68.2-4.76-101.79C6148,133.08,6157.37,0,6157.37,0s-55,66.18-57.83,145.13,18.81,141.55,18.81,141.55.56,2,1.87,5.33c-129.83-10.28-174.48-166.71-174.48-166.71s-60.93,86.07-13,229.13,223.41,143.43,198.08,175.31-143.44,62.53-143.44,62.53c19.37,76.86,145.87,94.65,145.87,94.65s-8.62-53.35,77.13-113c63.09-43.86,109.39-72.67,100.52-170.86-5.44-60.19,27.16-89.76,27.16-89.76C6336.27,311,6320.31,308.32,6320.31,308.32Z"/><path class="cls-1" d="M5539.19,1071.72s34.93,1.27,46.67,27.83,32.33,32.63,32.33,32.63,8.76-33.4,13.57-39.61,19.3-12,19.3-12,3.54,2.52,26.42,39.68,88.87,53,88.87,53-12.34-15.74-21.61-45.9-40.4-84.43-38.74-89.14,6.19-9,15.09-16.57,16.23-24.34,16.23-24.34-3.82-.57-17.61.33-33.77,10.79-33.77,10.79-6.65-7.95-28.29-20.13-53.83-72.56-58.22-69.26-9.83,27.28-7.81,60.32,39.79,68.47,39.79,68.47C5616.87,1067.52,5539.19,1071.72,5539.19,1071.72Z"/><path class="cls-1" d="M5180.09,837.1c14.6,0,22.82-10.19,22.8-23.93s-13.52-25.84-28.12-25.81-24.44,13.84-24.41,27.58S5165.49,837.13,5180.09,837.1Z"/><path class="cls-1" d="M5395.56,619.6c8.67,1.76,20.1-.37,27-6.27,11.1-9.45,7.57-27.88-2.47-40.06s-23.9-12.08-35-2.64-11.63,29-1.59,41.21a23.69,23.69,0,0,0,6.19,5.18c-4.29,28.82-14.54,71.62-40,136.3-15.22,38.7-33.28,75.95-45.56,102.51,3-.07,2.82,8,5.75,8.59C5351.4,775.93,5385.86,681.9,5395.56,619.6Z"/><path class="cls-1" d="M5568.81,1334.87c1.87-1.41,3.72-2.86,5.5-4.41,18.52-16.13,20.58-37.22,11.51-48s-29.43,8.21-47.95,24.34-24.94,27.15-15.88,37.91c7.52,8.92,25.77,4.31,42.35-6.7,25.44,33,86.32,136.47,113.23,180.72,28.79,47.32,43.78,82.22,55.63,101.71a24.91,24.91,0,0,1,6.56-5.34c-10.83-26.3-33.86-66.25-54.83-100.39C5644.15,1448.33,5590.48,1368.91,5568.81,1334.87Z"/><path class="cls-1" d="M6244.24,1042.07c-9.17,8-5.58,29.07,6.67,46.8-43,25.62-98,95.13-160.35,171-15.16,18.45-34.89,37.09-46.22,49.74-2.19,12,.21,15.59,1.87,17.78,9.48-10.57,27-32.81,46.4-56.43,46.62-56.75,115.91-149.91,162.23-177.15,15.81,18.12,37.66,23.22,47.77,14.34s-7.69-25.15-23.57-43.83S6254.47,1033.08,6244.24,1042.07Z"/><path class="cls-1" d="M6060.52,1050.73c-10.89-6.4-26.58,4.74-36.54,20-73.66-25.72-167-65.92-219.92-103.36-1.2,2.61-6.21.51-8.33,2.36,52.56,37.15,150.77,78.56,225.88,105-9.4,16.87-6.23,31.4,5.37,38.22s17.31-13.1,27-30.16S6072.23,1057.61,6060.52,1050.73Z"/><path class="cls-1" d="M5854.85,1272.86c6.77-4.45,13.17-9.5,19.49-14.59,6.79-5.46-.9-15.16-8.11-12.07a219.5,219.5,0,0,1-21.59,8.27c-8.67,2.66-16.48,4-24.62,8.28-9.42,4.89-6.54,20.41,4.37,20.64,10.28.2,17.56-2.68,26.12-7.8,11.24,16.78,19.23,58.48,22.18,117.22,2.05,40.81,1.24,81.8-1,107.51,1.62-.58,6.57-6.42,7.79-3.13,2-25.61.42-64.29-1.43-104C5875.76,1343,5868.54,1294.92,5854.85,1272.86Z"/><path class="cls-1" d="M5340,1342.33c-7.56-4.15-22.34,7.42-31.63,24.11-30.77-3.44-108.19-13.89-169.24-37.16-78.13-29.78-120.92-68.61-120.92-68.61l-14.72,1.53s57.54,44.8,126.83,74.59c55.49,23.86,142.06,34.2,174.38,37.38-5.74,14.7-3.72,27.38,3,31.09,7.75,4.26,22.07-11,31.29-28.39S5347.77,1346.59,5340,1342.33Z"/><path class="cls-1" d="M108.79,4172.32c0-13.29,0-47-48.74-47H24.6v-31H310.86c184.34,0,217.13,89.51,217.13,145.35,0,86-69.12,128.51-143.58,155.1l26.59,5.32c87.74,17.72,148.89,70,148.89,154.21,0,152.44-147.12,187-267.65,187H24.6v-31H60.93c28.36,0,47.86-11.52,47.86-44.31Zm90.4-47c-40.77,0-45.2,25.7-45.2,47V4385H262.12c92.17,0,220.68-35.45,220.68-145.35,0-56.72-40.77-114.33-171.93-114.33ZM154,4416V4666c0,33.68,10.64,44.31,48.75,44.31h89.51c173.7,0,222.45-84.2,222.45-156,0-35.45-11.52-63.81-35.45-85.08C434.94,4424.91,328.59,4416,295.8,4416Z"/><path class="cls-1" d="M698.14,4166.11c0-29.25-17.72-44.31-46.09-44.31H610.41v-27.47h273c149.78,0,265.88,32.79,265.88,160.42,0,52.29-22.16,94.83-66.47,126.74-36.34,25.7-88.63,42.54-158.64,49.63l150.66,247.27,23,25.7c8,6.2,19.5,9.75,34.56,9.75h43.43v27.47H1056.2L875.4,4432.88H742.46v242.84c0,35.45,36.33,38.11,48.74,38.11h39.88v27.47H610.41v-27.47h46.09c19.5,0,41.65-10.63,41.65-38.11Zm158.64,239.3q126.29,0,183.46-37.23c42.54-27.47,63.81-64.7,63.81-113.44,0-40.77-18.61-73.56-54.07-99.26-31.9-22.16-87.74-33.68-166.61-33.68H807.15c-49.63,0-64.69,9.75-64.69,44.31v239.3Z"/><path class="cls-1" d="M1347.77,4670.4c0,31,13.29,43.43,47,43.43h55.84v27.47h-251.7v-27.47h60.27c28.36,0,43.42-15.07,43.42-43.43V4164.35c0-38.11-23-42.54-43.42-42.54h-60.27v-27.47h251.7v27.47h-55.84c-31,0-47,7.09-47,42.54Z"/><path class="cls-1" d="M1934.47,4266.26c-44.31-78.88-98.37-153.33-206.5-153.33-86.86,0-144.46,62-144.46,132.06,0,111.67,87.74,136.48,164,150.67,84.2,11.52,142.69,33.68,176.37,63.81,34.56,30.13,51.4,63.81,51.4,99.26,0,107.24-86.86,191.43-206.51,191.43q-66.47,0-167.5-50.52l-25.71,25.7h-8l-62-153.32h22.15c62,78.88,141.81,150.66,241.07,150.66,88.63,0,161.3-65.58,161.3-143.58,0-40.77-28.36-111.67-182.57-134.71-86.86-14.18-144.46-39-171.94-74.45-24.81-31.91-37.22-68.24-37.22-109.9,0-102.81,90.4-174.6,189.66-174.6,39.88,0,87.74,15.07,144.46,45.2l24.81-20.39h8l52.29,156Z"/><path class="cls-1" d="M2585,4675.72c8.86,25.7,32.79,38.11,55.83,38.11h35.45v27.47H2446.73v-27.47h26.59c44.31-1.77,58.49-11.52,58.49-36.34,0-8-2.66-17.72-6.2-28.36l-47-131.17H2199.46l-46.09,121.42c-6.2,15.07-8.86,27.47-8.86,38.11,0,26.59,19.5,35.45,51.4,36.34h39v27.47H2007.14v-27.47c64.7,0,82.43,0,113.45-74.45l203-532.65,49.63-23ZM2345.7,4136.87l-136.49,353.62h259.68Z"/><path class="cls-1" d="M3136.24,4266.26c-44.31-78.88-98.37-153.33-206.5-153.33-86.86,0-144.46,62-144.46,132.06,0,111.67,87.74,136.48,164,150.67,84.2,11.52,142.69,33.68,176.37,63.81,34.56,30.13,51.4,63.81,51.4,99.26,0,107.24-86.86,191.43-206.51,191.43q-66.47,0-167.5-50.52l-25.71,25.7h-8l-62-153.32h22.15c62,78.88,141.81,150.66,241.07,150.66,88.63,0,161.31-65.58,161.31-143.58,0-40.77-28.36-111.67-182.57-134.71-86.86-14.18-144.46-39-171.94-74.45-24.81-31.91-37.22-68.24-37.22-109.9,0-102.81,90.4-174.6,189.66-174.6,39.88,0,87.74,15.07,144.46,45.2l24.81-20.39h8l52.29,156Z"/><path class="cls-1" d="M3535,4199.79c0-78-27.47-78-87.75-78v-27.47h246.39c139.15,0,294.24,70,294.24,326.15,0,73.56-15.07,135.59-47,187-68.24,111.67-167.51,133.82-257.91,133.82H3447.3v-27.47h34.57c41.66,0,53.18-22.16,53.18-75.33Zm109.9-78c-47.86,0-65.58,7.09-65.58,60.27V4666c0,36.34,19.5,47.86,63.81,47.86h39.88c52.29,0,96.61-10.63,132.06-31,86-47,122.3-166.62,122.3-279.18,0-95.72-21.27-164.85-62-209.16-45.2-47.86-106.35-72.67-181.69-72.67Z"/><path class="cls-1" d="M4127.93,4191.82c0-47-22.15-70-47-70H4040.2v-27.47h483.9l55,171H4556.9c-41.66-107.24-82.43-143.58-156.87-143.58H4216.56c-39,0-44.31,44.31-44.31,70v206.5H4323.8c71.79,0,81.54-26.59,81.54-108.13h22.16v243.73h-22.16c0-91.29-14.18-108.13-81.54-108.13H4172.26V4664.2c0,39.88,26.58,49.63,45.2,49.63h171c103.7,0,156-86,188.78-139.15h23L4524.1,4741.3H4040.2v-27.47h45.2c28.36,0,42.53-24.82,42.53-49.63Z"/><path class="cls-1" d="M4938,4175.87c0-30.13-12.41-54.07-46.09-54.07h-40.77v-27.47h273c126.74,0,265,22.15,265,161.3,0,52.29-22.15,95.72-65.58,127.62-46.09,32.79-121.42,49.63-226,49.63H4982.29V4664.2c0,45.2,34.57,49.63,49.63,49.63h39v27.47H4850.23v-27.47h46.09c23.93,0,41.66-17.72,41.66-49.63Zm159.53,229.54c78.88,0,246.38-7.09,246.38-149.78q0-61.15-53.18-101c-32.79-21.27-87.74-32.79-166.61-32.79H5047c-49.63,0-64.7,13.29-64.7,54.07v229.54Z"/><path class="cls-1" d="M5993.51,4675.72c8.87,25.7,32.8,38.11,55.84,38.11h35.45v27.47H5855.26v-27.47h26.58c44.31-1.77,58.5-11.52,58.5-36.34,0-8-2.66-17.72-6.21-28.36l-47-131.17H5608l-46.09,121.42c-6.21,15.07-8.86,27.47-8.86,38.11,0,26.59,19.5,35.45,51.4,36.34h39v27.47H5415.67v-27.47c64.69,0,82.42,0,113.44-74.45l203-532.65,49.63-23Zm-239.29-538.85-136.49,353.62h259.67Z"/><path class="cls-1" d="M6519.95,4121.8H6325c-110.78,0-145.35,49.63-191.43,134.72h-23l64.7-162.19h410.35v17.72l-435.17,601.78h226c92.17,0,142.69-50.52,194.09-139.15h22.15l-70.9,166.62H6086.56v-9.75Z"/><path class="cls-1" d="M119,5563.27H47.63V5538H218.87v25.26H147.54V5749H119Z"/><path class="cls-1" d="M244.25,5595.43h24.54v26.27a89.68,89.68,0,0,1,7-11.2q14.64-19.66,36-19.66a22.31,22.31,0,0,1,7.32,1.29v26.41l-5.31-.14q-21,0-32.37,12.56t-11.41,35.81V5749H244.25Z"/><path class="cls-1" d="M377.56,5753.17q-22.54,0-35.74-12.06t-13.21-32.58q0-20.67,12.42-32.87t36.24-15.21l35.17-4.45a53.84,53.84,0,0,0,8.18-1.44,13.1,13.1,0,0,0,7.75-5.17,16.57,16.57,0,0,0,2.73-9.76v-1.29q0-12.34-9.33-19.31t-26-7q-15.93,0-24.9,7.39t-10.84,22H336.22q1.86-25.26,17.8-38t45.64-12.7q28,0,42.63,12.13t14.64,35.38v84.4a8.44,8.44,0,0,0,2.37,6.24,8.63,8.63,0,0,0,6.39,2.37,28.29,28.29,0,0,0,3.37-.29q2.22-.29,4.81-.86v18.66a50.68,50.68,0,0,1-7.89,2.3,35.74,35.74,0,0,1-7,.86q-14.64,0-21.24-8-4.31-5.31-6.17-15.07a55.66,55.66,0,0,1-6.6,6.89Q405.55,5753.17,377.56,5753.17Zm53.54-65V5671.5a55.28,55.28,0,0,1-15.93,4.74l-23.68,3.45q-18.66,2.58-27.27,8.68a19.28,19.28,0,0,0-8.61,16.58q0,12.92,7,19.88t20,7q20.38,0,34.45-11.05,9.61-7.75,12.77-17.51a29.06,29.06,0,0,0,.86-5.89A89.69,89.69,0,0,0,431.1,5688.15Z"/><path class="cls-1" d="M499.1,5595.43h24.54v22.68l5.74-7.61q16.79-19.66,42.06-19.66t39.19,13.78q13.78,13.78,13.78,39.19V5749H598.57v-96.46q0-20.24-7.82-29.21t-25.33-9q-18.66,0-29.57,14.14t-10.91,38.25V5749H499.1Z"/><path class="cls-1" d="M719,5753.17q-30.57,0-48.59-23t-18-62.15q0-34.59,17.44-55.91t45.57-21.32q28,0,44.35,24a36,36,0,0,1,3.3,5.6v-25h24.26v214.3H761.45v-78.51l-1.29,1.58Q744.37,5753.17,719,5753.17Zm1.44-139.09q-21.39,0-31.22,13.92t-9.83,44.07q0,28.28,10.62,43.63t30.29,15.36q18.52,0,29.86-14.14t11.34-37.39q0-31.44-10.69-48.44T720.4,5614.09Z"/><path class="cls-1" d="M849.83,5694.47q0,19.38,7.46,27.92t24.26,8.54q18.66,0,29.57-14.42T922,5677.39v-82h25.84V5749H923.33v-23.4a66.48,66.48,0,0,1-5.74,7.89q-16.51,19.67-41.34,19.66-26.13,0-39.19-13.06T824,5700.93v-105.5h25.84Z"/><path class="cls-1" d="M985.73,5538h26.41v29.28H985.73Zm.29,57.41h25.84V5749H986Z"/><path class="cls-1" d="M1049.57,5538h25.84v211h-25.84Z"/><path class="cls-1" d="M1113.41,5538h26.41v29.28h-26.41Zm.29,57.41h25.84V5749H1113.7Z"/><path class="cls-1" d="M1235.24,5753.17q-30.86,0-49.09-23t-18.23-62.22q0-34.59,17.66-55.84t46.08-21.24q28.28,0,44.78,24l2,2.87V5538h25.84v211h-24v-21l-3.3,4.74Q1261.07,5753.17,1235.24,5753.17Zm1.44-139.09q-21.68,0-31.72,13.85t-10,44q0,28.42,10.84,43.78t30.93,15.36q18.8,0,30.29-14.14t11.48-37.39q0-31.44-10.84-48.44T1236.67,5614.09Z"/><path class="cls-1" d="M1379.17,5753.17q-22.54,0-35.74-12.06t-13.21-32.58q0-20.67,12.42-32.87t36.24-15.21L1414,5656a53.84,53.84,0,0,0,8.18-1.44,13.1,13.1,0,0,0,7.75-5.17,16.57,16.57,0,0,0,2.73-9.76v-1.29q0-12.34-9.33-19.31t-26-7q-15.93,0-24.9,7.39t-10.84,22h-23.83q1.86-25.26,17.8-38t45.64-12.7q28,0,42.63,12.13t14.64,35.38v84.4a8.44,8.44,0,0,0,2.37,6.24,8.63,8.63,0,0,0,6.39,2.37,28.29,28.29,0,0,0,3.37-.29q2.22-.29,4.81-.86v18.66a50.68,50.68,0,0,1-7.89,2.3,35.74,35.74,0,0,1-7,.86q-14.64,0-21.24-8-4.31-5.31-6.17-15.07a55.66,55.66,0,0,1-6.6,6.89Q1407.16,5753.17,1379.17,5753.17Zm53.54-65V5671.5a55.28,55.28,0,0,1-15.93,4.74l-23.68,3.45q-18.66,2.58-27.27,8.68a19.28,19.28,0,0,0-8.61,16.58q0,12.92,7,19.88t20,7q20.38,0,34.45-11.05,9.61-7.75,12.77-17.51a29.06,29.06,0,0,0,.86-5.89A89.69,89.69,0,0,0,1432.71,5688.15Z"/><path class="cls-1" d="M1559.28,5753.17q-30.86,0-49.09-23T1492,5667.91q0-34.59,17.66-55.84t46.08-21.24q28.28,0,44.78,24l2,2.87V5538h25.84v211h-24v-21l-3.3,4.74Q1585.11,5753.17,1559.28,5753.17Zm1.44-139.09q-21.68,0-31.72,13.85t-10,44q0,28.42,10.84,43.78t30.93,15.36q18.8,0,30.29-14.14t11.48-37.39q0-31.44-10.84-48.44T1560.71,5614.09Z"/><path class="cls-1" d="M1801.5,5753.17q-30.86,0-49.09-23t-18.23-62.22q0-34.59,17.66-55.84t46.08-21.24q28.28,0,44.78,24l2,2.87V5538h25.84v211h-24v-21l-3.3,4.74Q1827.33,5753.17,1801.5,5753.17Zm1.44-139.09q-21.68,0-31.72,13.85t-10,44q0,28.42,10.84,43.78t30.93,15.36q18.8,0,30.29-14.14t11.48-37.39q0-31.44-10.84-48.44T1802.93,5614.09Z"/><path class="cls-1" d="M1967.53,5753.17q-32.59,0-51.24-20.67t-18.66-57.13q0-38.75,19.74-61.65t53-22.89q30.14,0,48.66,22.39t18.52,58.85l-.31,9.19H1925.09q1.58,23,10.47,35,10.9,14.64,34.43,14.64a41.71,41.71,0,0,0,25.82-8.33,33.74,33.74,0,0,0,13.49-21.24h25.55q-5.74,25.26-23,38.54T1967.53,5753.17Zm43.12-92.72q-1.15-21.39-10.62-33.3-10.48-13.2-30.72-13.21t-32.59,15.21q-9.62,11.92-11.63,31.29Z"/><path class="cls-1" d="M2147.75,5538h25.84v211h-25.84Z"/><path class="cls-1" d="M2222,5730.78q-19.74-22.39-19.74-58.71t19.74-58.85q19.73-22.39,51.6-22.39,32.15,0,51.82,22.39t19.66,58.85q0,36.31-19.66,58.71t-51.82,22.39Q2241.73,5753.17,2222,5730.78Zm84-15.79q12.06-15.93,12.06-42.92t-12.06-43q-12.06-16-32.44-16t-32.37,16q-12,16-12,43t12,42.92q12,15.93,32.37,15.93T2306,5715Z"/><path class="cls-1" d="M2461,5639.92q-1.15-12.77-10.41-19.81t-24.91-7q-16.08,0-24.48,5.6t-8.4,16.36q0,8.18,5.89,12.34t23.4,8.33l26.7,6.32q22.4,5.46,32,15.07t9.51,26.55q0,22.82-16.44,36.17t-44.43,13.35q-32.44,0-48.38-12.85t-17.66-40.41h24.83q1.86,16.36,11.56,23.68t29.66,7.32q17.38,0,26.35-6.6t9-19.23q0-8-5.88-12.2t-23.69-8.33l-26.7-6.32q-21.68-5.17-30.86-14.5t-9.21-25.84q0-21.67,15.43-34.38t41.83-12.7q26.83,0,42.69,13.06t16.86,36Z"/><path class="cls-1" d="M2598.75,5595.43h24.54v22.68l5.74-7.61q16.79-19.66,42.06-19.66t39.19,13.78q13.78,13.78,13.78,39.19V5749h-25.84v-96.46q0-20.24-7.82-29.21t-25.33-9q-18.66,0-29.57,14.14t-10.91,38.25V5749h-25.84Z"/><path class="cls-1" d="M2787.46,5694.47q0,19.38,7.46,27.92t24.26,8.54q18.66,0,29.57-14.42t10.91-39.11v-82h25.84V5749H2861v-23.4a66.48,66.48,0,0,1-5.74,7.89q-16.51,19.67-41.34,19.66-26.13,0-39.19-13.06t-13.06-39.19v-105.5h25.84Z"/><path class="cls-1" d="M2985.37,5753.17q-32.58,0-51.24-20.67t-18.66-57.13q0-38.75,19.74-61.65t53-22.89q30.14,0,48.66,22.39t18.52,58.85l-.31,9.19H2942.93q1.58,23,10.47,35,10.9,14.64,34.43,14.64a41.71,41.71,0,0,0,25.82-8.33,33.74,33.74,0,0,0,13.49-21.24h25.55q-5.74,25.26-23,38.54T2985.37,5753.17Zm43.12-92.72q-1.15-21.39-10.62-33.3-10.48-13.2-30.72-13.21t-32.59,15.21q-9.62,11.92-11.63,31.29Z"/><path class="cls-1" d="M3172.76,5639.92q-1.15-12.77-10.41-19.81t-24.91-7q-16.08,0-24.48,5.6t-8.4,16.36q0,8.18,5.88,12.34t23.4,8.33l26.7,6.32q22.4,5.46,32,15.07t9.51,26.55q0,22.82-16.44,36.17t-44.43,13.35q-32.44,0-48.38-12.85t-17.65-40.41H3100q1.86,16.36,11.56,23.68t29.66,7.32q17.38,0,26.35-6.6t9-19.23q0-8-5.88-12.2t-23.69-8.33l-26.7-6.32q-21.68-5.17-30.86-14.5t-9.21-25.84q0-21.67,15.43-34.38t41.83-12.7q26.83,0,42.69,13.06t16.86,36Z"/><path class="cls-1" d="M3286.73,5748.87q-13.21,2-19.23,2-16.94,0-23.9-7.46t-7-25.69V5616.53h-21.24v-21.1h21.24v-43.06h25.84v43.06h24.26v21.1h-24.26v101.19a9.63,9.63,0,0,0,4.09,8.18q4.09,3,11,3h9.19Z"/><path class="cls-1" d="M3314.11,5595.43h24.54v26.27a89.71,89.71,0,0,1,7-11.2q14.64-19.66,36-19.66a22.3,22.3,0,0,1,7.32,1.29v26.41l-5.31-.14q-21,0-32.37,12.56t-11.41,35.81V5749h-25.84Z"/><path class="cls-1" d="M3417.92,5730.78q-19.74-22.39-19.74-58.71t19.74-58.85q19.73-22.39,51.6-22.39,32.15,0,51.82,22.39t19.67,58.85q0,36.31-19.67,58.71t-51.82,22.39Q3437.66,5753.17,3417.92,5730.78Zm84-15.79q12.06-15.93,12.06-42.92t-12.06-43q-12.06-16-32.44-16t-32.37,16q-12,16-12,43t12,42.92q12,15.93,32.37,15.93T3502,5715Z"/><path class="cls-1" d="M3656.92,5639.92q-1.15-12.77-10.41-19.81t-24.91-7q-16.08,0-24.48,5.6t-8.4,16.36q0,8.18,5.88,12.34t23.4,8.33l26.7,6.32q22.4,5.46,32,15.07t9.51,26.55q0,22.82-16.44,36.17t-44.43,13.35q-32.44,0-48.38-12.85t-17.65-40.41h24.83q1.86,16.36,11.56,23.68t29.66,7.32q17.38,0,26.35-6.6t9-19.23q0-8-5.88-12.2t-23.69-8.33l-26.7-6.32q-21.68-5.17-30.86-14.5t-9.21-25.84q0-21.67,15.43-34.38t41.83-12.7q26.83,0,42.69,13.06t16.86,36Z"/><path class="cls-1" d="M3835.15,5753.17q-22.54,0-35.74-12.06t-13.21-32.58q0-20.67,12.42-32.87t36.24-15.21L3870,5656a53.83,53.83,0,0,0,8.18-1.44,13.1,13.1,0,0,0,7.75-5.17,16.56,16.56,0,0,0,2.73-9.76v-1.29q0-12.34-9.33-19.31t-26-7q-15.93,0-24.9,7.39t-10.84,22h-23.83q1.86-25.26,17.8-38t45.64-12.7q28,0,42.63,12.13t14.64,35.38v84.4a8.44,8.44,0,0,0,2.37,6.24,8.63,8.63,0,0,0,6.39,2.37,28.29,28.29,0,0,0,3.37-.29q2.22-.29,4.81-.86v18.66a50.68,50.68,0,0,1-7.89,2.3,35.74,35.74,0,0,1-7,.86q-14.64,0-21.24-8-4.31-5.31-6.17-15.07a55.64,55.64,0,0,1-6.6,6.89Q3863.14,5753.17,3835.15,5753.17Zm53.54-65V5671.5a55.29,55.29,0,0,1-15.93,4.74l-23.68,3.45q-18.66,2.58-27.27,8.68a19.28,19.28,0,0,0-8.61,16.58q0,12.92,7,19.88t20,7q20.38,0,34.45-11.05,9.61-7.75,12.77-17.51a29,29,0,0,0,.86-5.89A89.69,89.69,0,0,0,3888.69,5688.15Z"/><path class="cls-1" d="M3957.27,5538h25.84v211h-25.84Z"/><path class="cls-1" d="M4100.74,5595.43h24.54v22.82l5.31-6.89q17.37-20.52,41.48-20.53,20.67,0,32.87,12.2a39.58,39.58,0,0,1,8.47,12.49l4.16-5.31q16.65-19.38,39.76-19.38,24.11,0,37.25,13.13t13.13,37.25V5749h-25.84v-99q0-17.51-7.18-26.55t-21-9q-16.79,0-26.7,13.06t-9.9,35.31V5749h-25.84V5643.8q0-14.35-6.53-21.89t-19-7.54q-17.22,0-28.21,14.64t-11,37.75V5749h-25.84Z"/><path class="cls-1" d="M4355.12,5730.78q-19.74-22.39-19.74-58.71t19.74-58.85q19.73-22.39,51.6-22.39,32.15,0,51.82,22.39t19.67,58.85q0,36.31-19.67,58.71t-51.82,22.39Q4374.86,5753.17,4355.12,5730.78Zm84-15.79q12.06-15.93,12.06-42.92t-12.06-43q-12.06-16-32.44-16t-32.37,16q-12,16-12,43t12,42.92q12,15.93,32.37,15.93T4439.16,5715Z"/><path class="cls-1" d="M4506.16,5595.43h24.54v22.82l5.31-6.89q17.37-20.52,41.48-20.53,20.67,0,32.87,12.2a39.58,39.58,0,0,1,8.47,12.49l4.16-5.31q16.65-19.38,39.76-19.38,24.11,0,37.25,13.13t13.13,37.25V5749H4687.3v-99q0-17.51-7.18-26.55t-21-9q-16.79,0-26.7,13.06t-9.9,35.31V5749h-25.84V5643.8q0-14.35-6.53-21.89t-19-7.54q-17.22,0-28.21,14.64t-11,37.75V5749h-25.84Z"/><path class="cls-1" d="M4812.15,5753.17q-32.58,0-51.24-20.67t-18.66-57.13q0-38.75,19.74-61.65t53-22.89q30.14,0,48.66,22.39t18.52,58.85l-.31,9.19H4769.7q1.58,23,10.47,35,10.9,14.64,34.43,14.64a41.71,41.71,0,0,0,25.82-8.33,33.74,33.74,0,0,0,13.49-21.24h25.55q-5.74,25.26-23,38.54T4812.15,5753.17Zm43.12-92.72q-1.15-21.39-10.62-33.3-10.48-13.2-30.72-13.21t-32.59,15.21q-9.62,11.92-11.63,31.29Z"/><path class="cls-1" d="M4911.58,5595.43h24.54v22.68l5.74-7.61q16.79-19.66,42.06-19.66t39.19,13.78q13.78,13.78,13.78,39.19V5749h-25.84v-96.46q0-20.24-7.82-29.21t-25.33-9q-18.66,0-29.57,14.14t-10.91,38.25V5749h-25.84Z"/><path class="cls-1" d="M5130,5748.87q-13.21,2-19.23,2-16.94,0-23.9-7.46t-7-25.69V5616.53h-21.24v-21.1h21.24v-43.06h25.84v43.06H5130v21.1h-24.26v101.19a9.63,9.63,0,0,0,4.09,8.18q4.09,3,11,3H5130Z"/><path class="cls-1" d="M5164.79,5730.78q-19.74-22.39-19.74-58.71t19.74-58.85q19.73-22.39,51.6-22.39,32.15,0,51.82,22.39t19.67,58.85q0,36.31-19.67,58.71t-51.82,22.39Q5184.52,5753.17,5164.79,5730.78Zm84-15.79q12.06-15.93,12.06-42.92t-12.06-43q-12.06-16-32.44-16t-32.37,16q-12,16-12,43t12,42.92q12,15.93,32.37,15.93T5248.83,5715Z"/><path class="cls-1" d="M5454.59,5753.17q-30.86,0-49.09-23t-18.23-62.22q0-34.59,17.66-55.84t46.08-21.24q28.28,0,44.78,24l2,2.87V5538h25.84v211h-24v-21l-3.3,4.74Q5480.43,5753.17,5454.59,5753.17Zm1.44-139.09q-21.68,0-31.72,13.85t-10,44q0,28.42,10.84,43.78t30.93,15.36q18.8,0,30.29-14.14t11.48-37.39q0-31.44-10.84-48.44T5456,5614.09Z"/><path class="cls-1" d="M5620.63,5753.17q-32.58,0-51.24-20.67t-18.66-57.13q0-38.75,19.74-61.65t53-22.89q30.14,0,48.66,22.39t18.52,58.85l-.31,9.19H5578.18q1.58,23,10.47,35,10.9,14.64,34.43,14.64a41.71,41.71,0,0,0,25.82-8.33,33.74,33.74,0,0,0,13.49-21.24h25.55q-5.74,25.26-23,38.54T5620.63,5753.17Zm43.12-92.72q-1.15-21.39-10.62-33.3-10.48-13.2-30.72-13.21t-32.59,15.21q-9.62,11.92-11.63,31.29Z"/><path class="cls-1" d="M5798.26,5595.43h24.54v21.82l1.29-1.87q16.65-24.54,43.78-24.54,30.14,0,47.73,20.74t17.58,56.05q0,40-17.73,62.8t-49.16,22.75q-26,0-41.34-20l-.86-1.15v77.65h-25.84ZM5865,5730.78q20.24,0,30.72-15.29t10.48-44.57q0-28.85-10-42.7t-31-13.85q-21.39,0-31.22,15.65t-9.83,49.52q0,24.54,10.62,37.89T5865,5730.78Z"/><path class="cls-1" d="M6002.76,5753.17q-22.54,0-35.74-12.06t-13.21-32.58q0-20.67,12.42-32.87t36.24-15.21l35.17-4.45a53.83,53.83,0,0,0,8.18-1.44,13.1,13.1,0,0,0,7.75-5.17,16.56,16.56,0,0,0,2.73-9.76v-1.29q0-12.34-9.33-19.31t-26-7q-15.93,0-24.9,7.39t-10.84,22h-23.83q1.86-25.26,17.8-38t45.64-12.7q28,0,42.63,12.13t14.64,35.38v84.4a8.44,8.44,0,0,0,2.37,6.24,8.63,8.63,0,0,0,6.39,2.37,28.29,28.29,0,0,0,3.37-.29q2.22-.29,4.81-.86v18.66a50.68,50.68,0,0,1-7.89,2.3,35.74,35.74,0,0,1-7,.86q-14.64,0-21.24-8-4.31-5.31-6.17-15.07a55.64,55.64,0,0,1-6.6,6.89Q6030.75,5753.17,6002.76,5753.17Zm53.54-65V5671.5a55.29,55.29,0,0,1-15.93,4.74l-23.68,3.45q-18.66,2.58-27.27,8.68a19.28,19.28,0,0,0-8.61,16.58q0,12.92,7,19.88t20,7q20.38,0,34.45-11.05,9.61-7.75,12.77-17.51a29,29,0,0,0,.86-5.89A89.69,89.69,0,0,0,6056.3,5688.15Z"/><path class="cls-1" d="M6127.89,5595.43h24.54v26.27a89.71,89.71,0,0,1,7-11.2q14.64-19.66,36-19.66a22.3,22.3,0,0,1,7.32,1.29v26.41l-5.31-.14q-21,0-32.37,12.56t-11.41,35.81V5749h-25.84Z"/><path class="cls-1" d="M6277.14,5748.87q-13.21,2-19.23,2-16.94,0-23.9-7.46t-7-25.69V5616.53H6205.8v-21.1H6227v-43.06h25.84v43.06h24.26v21.1h-24.26v101.19a9.63,9.63,0,0,0,4.09,8.18q4.09,3,11,3h9.19Z"/><path class="cls-1" d="M6301.5,5538h26.41v29.28H6301.5Zm.29,57.41h25.84V5749h-25.84Z"/><path class="cls-1" d="M6368.36,5595.43h24.54v26.27a89.71,89.71,0,0,1,7-11.2q14.64-19.66,36-19.66a22.3,22.3,0,0,1,7.32,1.29v26.41l-5.31-.14q-21,0-32.37,12.56t-11.41,35.81V5749h-25.84Z"/><path class="cls-1" d="M68.73,4965H161q30.71,0,48,15.43t17.3,42.7q0,30-17.3,46.94T161,5087q-40.34-.14-63.73.29V5176H68.73Zm28.56,97.61H154q22.25,0,32.58-9.4t10.33-29.5q0-17.8-10.33-26.05T154,4989.42H97.3Z"/><path class="cls-1" d="M529.14,4965h32.58l75.79,211H606.86l-21.5-61.15H501.1L478.94,5176H449.48Zm-19,124.59h66.41L544,4996h.09Z"/><path class="cls-1" d="M873,4965h98.18q33.59,0,51.1,14.57t17.51,42.7q0,27.7-18.23,43.35a65.44,65.44,0,0,1-9.9,6.89l4.74,2.3q19.23,11.05,20,37.18l1.15,38.47q.29,9.47,2.44,13.64t8.33,7.18v4.59h-35.12q-1.15-2.58-2.29-13.49t-1.72-24.26l-.64-16.65q-.58-19.66-9.61-28.06t-29.56-8.4H901.57v91H873Zm28.56,95.31h70.62q19.81,0,29-8.68t9.19-27.49q0-18.23-9.69-26.7T970,4989H901.57Z"/><path class="cls-1" d="M1466.47,5192.1l-31.58-24.83q-23.54,14.35-55.41,14.5-45.93,0-74.35-30.64t-28.42-80.45q0-50,28.42-80.67t74.35-30.72q46.22,0,74.57,30.72t28.35,80.67q0,49.81-28.42,80.52l-2,2,5.89,4.74q21.1,16.94,22.39,18.09Zm-76.65-60.29,13.78-17.22,26.41,21.1,2.73-2.87q20.24-23.68,20.24-62.15t-20.24-62.37q-20.24-23.75-53.25-23.75t-53.11,23.75q-20.24,23.76-20.24,62.37t20.24,62.15q20.24,23.68,53.11,23.68,18.37-.29,32.73-7Z"/><path class="cls-1" d="M1889,5098.65q0,39-22,61.08t-61,22q-40.62,0-61.86-21.17t-21.24-61.94V4965h28.56V5096.5q0,29.43,13.92,44.71T1806,5156.5q26.7,0,40.55-15.29t13.85-44.71V4965H1889Z"/><path class="cls-1" d="M2143,5176V4965h154.3v25.26H2171.55v64.45h114.83V5080H2171.55v70.76h127.32V5176Z"/><path class="cls-1" d="M3007.25,5098.37q-5.46,39-29.93,61.22t-61.94,22.18q-43.64,0-69.54-30.07t-25.91-81q0-51,26.91-81.17t72.27-30.21q35.74,0,58.71,18.37t27.56,50.67h-27.56q-4-21-19.45-32.37t-39.69-11.41q-31.72,0-50.53,23.32t-18.8,62.8q0,41.91,17.44,63.87t50.6,22q24.54,0,40.76-15.14t21.53-43Z"/><path class="cls-1" d="M3250.35,5176V4965h154.3v25.26H3278.91v64.45h114.83V5080H3278.91v70.76h127.32V5176Z"/><path class="cls-1" d="M3676.17,5176h-27.7V4965h41.05l60.35,179.57h0l59.8-179.57h41.05v211H3823V4997.46h-.1L3763.44,5176h-27.56l-59.66-178h-.05Z"/><path class="cls-1" d="M4102.84,5176V4965h154.3v25.26H4131.41v64.45h114.83V5080H4131.41v70.76h127.32V5176Z"/><path class="cls-1" d="M4529.38,5176h-27.56V4965h34.31l105.64,171.47V4965h27.56v211H4638l-108.66-172.13Z"/><path class="cls-1" d="M4973,4990.28h-71.34V4965H5072.9v25.26h-71.34V5176H4973Z"/><path class="cls-1" d="M5308.1,5176V4965h154.3v25.26H5336.66v64.45h114.83V5080H5336.66v70.76H5464V5176Z"/><path class="cls-1" d="M5710.52,4965h98.18q33.59,0,51.1,14.57t17.51,42.7q0,27.7-18.23,43.35a65.44,65.44,0,0,1-9.9,6.89l4.74,2.3q19.23,11.05,20,37.18l1.15,38.47q.29,9.47,2.44,13.64t8.32,7.18v4.59h-35.12q-1.15-2.58-2.29-13.49t-1.72-24.26l-.64-16.65q-.57-19.66-9.61-28.06t-29.56-8.4h-67.75v91h-28.56Zm28.56,95.31h70.62q19.81,0,29-8.68t9.19-27.49q0-18.23-9.69-26.7t-30.65-8.47h-68.47Z"/><path class="cls-1" d="M6129.44,4965H6158v211h-28.56Z"/><path class="cls-1" d="M6430.1,5151.12q-28.42-30.64-28.42-80.45T6430.1,4990q28.42-30.71,74.35-30.72,46.22,0,74.57,30.72t28.35,80.67q0,49.81-28.35,80.45t-74.57,30.64Q6458.51,5181.76,6430.1,5151.12Zm127.6-18.3q20.24-23.68,20.24-62.15t-20.24-62.37q-20.24-23.75-53.25-23.75t-53.11,23.75q-20.24,23.76-20.24,62.37t20.24,62.15q20.24,23.68,53.11,23.68T6557.7,5132.81Z"/><rect class="cls-1" x="24.6" y="5331.31" width="6568.02" height="41.52"/></g></g></svg>