<svg xmlns="http://www.w3.org/2000/svg" viewBox="0 0 6582.77 1726.04"><defs><style>.cls-1{fill:#fff;}</style></defs><title>Recurso 2</title><g id="Capa_2" data-name="Capa 2"><g id="Capa_1-2" data-name="Capa 1"><path class="cls-1" d="M84.19,88.63c0-13.29,0-47-48.74-47H0v-31H286.27C470.6,10.64,503.4,100.15,503.4,156c0,86-69.12,128.51-143.58,155.1l26.59,5.32c87.74,17.72,148.89,70,148.89,154.21,0,152.44-147.12,187-267.65,187H0v-31H36.33c28.36,0,47.86-11.52,47.86-44.31Zm90.4-47c-40.77,0-45.2,25.7-45.2,47v212.7H237.52c92.17,0,220.68-35.45,220.68-145.35,0-56.72-40.77-114.33-171.93-114.33Zm-45.2,290.7V582.28c0,33.68,10.64,44.31,48.75,44.31h89.51c173.7,0,222.45-84.2,222.45-156,0-35.45-11.52-63.81-35.45-85.08C410.34,341.22,304,332.35,271.2,332.35Z"/><path class="cls-1" d="M673.54,82.42c0-29.25-17.72-44.31-46.09-44.31H585.81V10.64h273c149.78,0,265.88,32.79,265.88,160.42,0,52.29-22.16,94.83-66.47,126.74-36.34,25.7-88.63,42.54-158.64,49.63l150.66,247.27,23,25.7c8,6.2,19.5,9.75,34.56,9.75h43.43v27.47H1031.6L850.8,349.19H717.86V592c0,35.45,36.33,38.11,48.74,38.11h39.88v27.47H585.81V630.14h46.09c19.5,0,41.65-10.63,41.65-38.11Zm158.64,239.3q126.29,0,183.46-37.23c42.54-27.47,63.81-64.7,63.81-113.44,0-40.77-18.61-73.56-54.07-99.26-31.9-22.16-87.74-33.68-166.61-33.68H782.56c-49.63,0-64.69,9.75-64.69,44.31v239.3Z"/><path class="cls-1" d="M1323.18,586.71c0,31,13.29,43.43,47,43.43H1426v27.47h-251.7V630.14h60.27c28.36,0,43.42-15.07,43.42-43.43V80.65c0-38.11-23-42.54-43.42-42.54h-60.27V10.64H1426V38.11h-55.84c-31,0-47,7.09-47,42.54Z"/><path class="cls-1" d="M1909.87,182.57c-44.31-78.88-98.37-153.33-206.5-153.33-86.86,0-144.46,62-144.46,132.06,0,111.67,87.74,136.48,164,150.67,84.2,11.52,142.69,33.68,176.37,63.81,34.56,30.13,51.4,63.81,51.4,99.26,0,107.24-86.86,191.43-206.51,191.43q-66.47,0-167.5-50.52l-25.71,25.7h-8l-62-153.32h22.15c62,78.88,141.81,150.66,241.07,150.66,88.63,0,161.3-65.58,161.3-143.58,0-40.77-28.36-111.67-182.57-134.71-86.86-14.18-144.46-39-171.94-74.45-24.81-31.91-37.22-68.24-37.22-109.9,0-102.81,90.4-174.6,189.66-174.6,39.88,0,87.74,15.07,144.46,45.2l24.81-20.39h8l52.29,156Z"/><path class="cls-1" d="M2560.4,592c8.86,25.7,32.79,38.11,55.83,38.11h35.45v27.47H2422.13V630.14h26.59c44.31-1.77,58.49-11.52,58.49-36.34,0-8-2.66-17.72-6.2-28.36l-47-131.17H2174.87l-46.09,121.42c-6.2,15.07-8.86,27.47-8.86,38.11,0,26.59,19.5,35.45,51.4,36.34h39v27.47H1982.54V630.14c64.7,0,82.43,0,113.45-74.45L2298.94,23l49.63-23ZM2321.1,53.18,2184.61,406.8h259.68Z"/><path class="cls-1" d="M3111.64,182.57c-44.31-78.88-98.37-153.33-206.5-153.33-86.86,0-144.46,62-144.46,132.06,0,111.67,87.74,136.48,164,150.67,84.2,11.52,142.69,33.68,176.37,63.81,34.56,30.13,51.4,63.81,51.4,99.26,0,107.24-86.86,191.43-206.51,191.43q-66.47,0-167.5-50.52l-25.71,25.7h-8l-62-153.32h22.15c62,78.88,141.81,150.66,241.07,150.66,88.63,0,161.31-65.58,161.31-143.58,0-40.77-28.36-111.67-182.57-134.71-86.86-14.18-144.46-39-171.94-74.45-24.81-31.91-37.22-68.24-37.22-109.9,0-102.81,90.4-174.6,189.66-174.6,39.88,0,87.74,15.07,144.46,45.2l24.81-20.39h8l52.29,156Z"/><path class="cls-1" d="M3510.45,116.1c0-78-27.47-78-87.75-78V10.64h246.39c139.15,0,294.24,70,294.24,326.15,0,73.56-15.07,135.59-47,187-68.24,111.67-167.51,133.82-257.91,133.82H3422.7V630.14h34.57c41.66,0,53.18-22.16,53.18-75.33Zm109.9-78c-47.86,0-65.58,7.09-65.58,60.27v483.9c0,36.34,19.5,47.86,63.81,47.86h39.88c52.29,0,96.61-10.63,132.06-31,86-47,122.3-166.62,122.3-279.18,0-95.72-21.27-164.85-62-209.16-45.2-47.86-106.35-72.67-181.69-72.67Z"/><path class="cls-1" d="M4103.34,108.13c0-47-22.15-70-47-70H4015.6V10.64h483.9l55,171H4532.3c-41.66-107.24-82.43-143.58-156.87-143.58H4192c-39,0-44.31,44.31-44.31,70v206.5h151.55c71.79,0,81.54-26.59,81.54-108.13h22.16V450.23h-22.16c0-91.29-14.18-108.13-81.54-108.13H4147.66V580.51c0,39.88,26.58,49.63,45.2,49.63h171c103.7,0,156-86,188.78-139.15h23L4499.5,657.61H4015.6V630.14h45.2c28.36,0,42.53-24.82,42.53-49.63Z"/><path class="cls-1" d="M4913.38,92.18c0-30.13-12.41-54.07-46.09-54.07h-40.77V10.64h273c126.74,0,265,22.15,265,161.3,0,52.29-22.15,95.72-65.58,127.62-46.09,32.79-121.42,49.63-226,49.63H4957.69V580.51c0,45.2,34.57,49.63,49.63,49.63h39v27.47H4825.63V630.14h46.09c23.93,0,41.66-17.72,41.66-49.63Zm159.53,229.54c78.88,0,246.38-7.09,246.38-149.78q0-61.15-53.18-101c-32.79-21.27-87.74-32.79-166.61-32.79h-77.11c-49.63,0-64.7,13.29-64.7,54.07V321.72Z"/><path class="cls-1" d="M5968.91,592c8.87,25.7,32.8,38.11,55.84,38.11h35.45v27.47H5830.66V630.14h26.58c44.31-1.77,58.5-11.52,58.5-36.34,0-8-2.66-17.72-6.21-28.36l-47-131.17H5583.39L5537.3,555.69c-6.21,15.07-8.86,27.47-8.86,38.11,0,26.59,19.5,35.45,51.4,36.34h39v27.47H5391.07V630.14c64.69,0,82.42,0,113.44-74.45L5707.46,23l49.63-23ZM5729.63,53.18,5593.14,406.8h259.67Z"/><path class="cls-1" d="M6495.35,38.11h-195c-110.78,0-145.35,49.63-191.43,134.72h-23l64.7-162.19h410.35V28.36L6125.77,630.14h226c92.17,0,142.69-50.52,194.09-139.15H6568l-70.9,166.62H6062v-9.75Z"/><path class="cls-1" d="M94.37,1479.58H23v-25.26H194.28v25.26H122.94v185.74H94.37Z"/><path class="cls-1" d="M219.65,1511.74h24.54V1538a89.68,89.68,0,0,1,7-11.2q14.64-19.66,36-19.66a22.31,22.31,0,0,1,7.32,1.29v26.41l-5.31-.14q-21,0-32.37,12.56t-11.41,35.81v82.25H219.65Z"/><path class="cls-1" d="M353,1669.48q-22.54,0-35.74-12.06T304,1624.84q0-20.67,12.42-32.87t36.24-15.21l35.17-4.45a53.84,53.84,0,0,0,8.18-1.44,13.1,13.1,0,0,0,7.75-5.17,16.57,16.57,0,0,0,2.73-9.76v-1.29q0-12.34-9.33-19.31t-26-7q-15.93,0-24.9,7.39t-10.84,22H311.62q1.86-25.26,17.8-38t45.64-12.7q28,0,42.63,12.13t14.64,35.38v84.4a8.44,8.44,0,0,0,2.37,6.24,8.63,8.63,0,0,0,6.39,2.37,28.29,28.29,0,0,0,3.37-.29q2.22-.29,4.81-.86v18.66a50.68,50.68,0,0,1-7.89,2.3,35.74,35.74,0,0,1-7,.86q-14.64,0-21.24-8-4.31-5.31-6.17-15.07a55.66,55.66,0,0,1-6.6,6.89Q380.95,1669.48,353,1669.48Zm53.54-65v-16.65a55.28,55.28,0,0,1-15.93,4.74L366.88,1596q-18.66,2.58-27.27,8.68a19.28,19.28,0,0,0-8.61,16.58q0,12.92,7,19.88t20,7q20.38,0,34.45-11.05,9.61-7.75,12.77-17.51a29.06,29.06,0,0,0,.86-5.89A89.69,89.69,0,0,0,406.5,1604.46Z"/><path class="cls-1" d="M474.5,1511.74H499v22.68l5.74-7.61q16.79-19.66,42.06-19.66T586,1520.92q13.78,13.78,13.78,39.19v105.21H574v-96.46q0-20.24-7.82-29.21t-25.33-9q-18.66,0-29.57,14.14t-10.91,38.25v82.25H474.5Z"/><path class="cls-1" d="M694.37,1669.48q-30.57,0-48.59-23t-18-62.15q0-34.59,17.44-55.91t45.57-21.32q28,0,44.35,24a36,36,0,0,1,3.3,5.6v-25h24.26V1726H736.85v-78.51l-1.29,1.58Q719.77,1669.48,694.37,1669.48Zm1.44-139.09q-21.39,0-31.22,13.92t-9.83,44.07q0,28.28,10.62,43.63t30.29,15.36q18.52,0,29.86-14.14t11.34-37.39q0-31.44-10.69-48.44T695.8,1530.4Z"/><path class="cls-1" d="M825.24,1610.78q0,19.38,7.46,27.92t24.26,8.54q18.66,0,29.57-14.42t10.91-39.11v-82h25.84v153.58H898.73v-23.4a66.48,66.48,0,0,1-5.74,7.89q-16.51,19.67-41.34,19.66-26.13,0-39.19-13.06t-13.06-39.19v-105.5h25.84Z"/><path class="cls-1" d="M961.13,1454.32h26.41v29.28H961.13Zm.29,57.41h25.84v153.58H961.42Z"/><path class="cls-1" d="M1025,1454.32h25.84v211H1025Z"/><path class="cls-1" d="M1088.81,1454.32h26.41v29.28h-26.41Zm.29,57.41h25.84v153.58H1089.1Z"/><path class="cls-1" d="M1210.64,1669.48q-30.86,0-49.09-23t-18.23-62.22q0-34.59,17.66-55.84t46.08-21.24q28.28,0,44.78,24l2,2.87v-79.66h25.84v211h-24v-21l-3.3,4.74Q1236.48,1669.48,1210.64,1669.48Zm1.44-139.09q-21.68,0-31.72,13.85t-10,44q0,28.42,10.84,43.78t30.93,15.36q18.8,0,30.29-14.14t11.48-37.39q0-31.44-10.84-48.44T1212.07,1530.4Z"/><path class="cls-1" d="M1354.57,1669.48q-22.54,0-35.74-12.06t-13.21-32.58q0-20.67,12.42-32.87t36.24-15.21l35.17-4.45a53.84,53.84,0,0,0,8.18-1.44,13.1,13.1,0,0,0,7.75-5.17,16.57,16.57,0,0,0,2.73-9.76v-1.29q0-12.34-9.33-19.31t-26-7q-15.93,0-24.9,7.39t-10.84,22h-23.83q1.86-25.26,17.8-38t45.64-12.7q28,0,42.63,12.13t14.64,35.38v84.4a8.44,8.44,0,0,0,2.37,6.24,8.63,8.63,0,0,0,6.39,2.37,28.29,28.29,0,0,0,3.37-.29q2.22-.29,4.81-.86v18.66a50.68,50.68,0,0,1-7.89,2.3,35.74,35.74,0,0,1-7,.86q-14.64,0-21.24-8-4.31-5.31-6.17-15.07a55.66,55.66,0,0,1-6.6,6.89Q1382.56,1669.48,1354.57,1669.48Zm53.54-65v-16.65a55.28,55.28,0,0,1-15.93,4.74L1368.5,1596q-18.66,2.58-27.27,8.68a19.28,19.28,0,0,0-8.61,16.58q0,12.92,7,19.88t20,7q20.38,0,34.45-11.05,9.61-7.75,12.77-17.51a29.06,29.06,0,0,0,.86-5.89A89.69,89.69,0,0,0,1408.11,1604.46Z"/><path class="cls-1" d="M1534.68,1669.48q-30.86,0-49.09-23t-18.23-62.22q0-34.59,17.66-55.84t46.08-21.24q28.28,0,44.78,24l2,2.87v-79.66h25.84v211h-24v-21l-3.3,4.74Q1560.51,1669.48,1534.68,1669.48Zm1.44-139.09q-21.68,0-31.72,13.85t-10,44q0,28.42,10.84,43.78t30.93,15.36q18.8,0,30.29-14.14t11.48-37.39q0-31.44-10.84-48.44T1536.11,1530.4Z"/><path class="cls-1" d="M1776.9,1669.48q-30.86,0-49.09-23t-18.23-62.22q0-34.59,17.66-55.84t46.08-21.24q28.28,0,44.78,24l2,2.87v-79.66h25.84v211h-24v-21l-3.3,4.74Q1802.74,1669.48,1776.9,1669.48Zm1.44-139.09q-21.68,0-31.72,13.85t-10,44q0,28.42,10.84,43.78t30.93,15.36q18.8,0,30.29-14.14t11.48-37.39q0-31.44-10.84-48.44T1778.33,1530.4Z"/><path class="cls-1" d="M1942.94,1669.48q-32.59,0-51.24-20.67T1873,1591.69q0-38.75,19.74-61.65t53-22.89q30.14,0,48.66,22.39t18.52,58.85l-.31,9.19H1900.49q1.58,23,10.47,35,10.9,14.64,34.43,14.64a41.71,41.71,0,0,0,25.82-8.33,33.74,33.74,0,0,0,13.49-21.24h25.55q-5.74,25.26-23,38.54T1942.94,1669.48Zm43.12-92.72q-1.15-21.39-10.62-33.3-10.48-13.2-30.72-13.21t-32.59,15.21q-9.62,11.92-11.63,31.29Z"/><path class="cls-1" d="M2123.15,1454.32H2149v211h-25.84Z"/><path class="cls-1" d="M2197.4,1647.09q-19.74-22.39-19.74-58.71t19.74-58.85q19.73-22.39,51.6-22.39,32.15,0,51.82,22.39t19.66,58.85q0,36.31-19.66,58.71T2249,1669.48Q2217.13,1669.48,2197.4,1647.09Zm84-15.79q12.06-15.93,12.06-42.92t-12.06-43q-12.06-16-32.44-16t-32.37,16q-12,16-12,43t12,42.92q12,15.93,32.37,15.93T2281.44,1631.3Z"/><path class="cls-1" d="M2436.39,1556.23q-1.15-12.77-10.41-19.81t-24.91-7q-16.08,0-24.48,5.6t-8.4,16.36q0,8.18,5.89,12.34t23.4,8.33l26.7,6.32q22.4,5.46,32,15.07t9.51,26.55q0,22.82-16.44,36.17t-44.43,13.35q-32.44,0-48.38-12.85t-17.66-40.41h24.83q1.86,16.36,11.56,23.68t29.66,7.32q17.38,0,26.35-6.6t9-19.23q0-8-5.88-12.2t-23.69-8.33l-26.7-6.32q-21.68-5.17-30.86-14.5t-9.21-25.84q0-21.67,15.43-34.38t41.83-12.7q26.83,0,42.69,13.06t16.86,36Z"/><path class="cls-1" d="M2574.15,1511.74h24.54v22.68l5.74-7.61q16.79-19.66,42.06-19.66t39.19,13.78q13.78,13.78,13.78,39.19v105.21h-25.84v-96.46q0-20.24-7.82-29.21t-25.33-9q-18.66,0-29.57,14.14T2600,1583.07v82.25h-25.84Z"/><path class="cls-1" d="M2762.87,1610.78q0,19.38,7.46,27.92t24.26,8.54q18.66,0,29.57-14.42t10.91-39.11v-82h25.84v153.58h-24.54v-23.4a66.48,66.48,0,0,1-5.74,7.89q-16.51,19.67-41.34,19.66-26.13,0-39.19-13.06T2737,1617.24v-105.5h25.84Z"/><path class="cls-1" d="M2960.77,1669.48q-32.58,0-51.24-20.67t-18.66-57.13q0-38.75,19.74-61.65t53-22.89q30.14,0,48.66,22.39t18.52,58.85l-.31,9.19H2918.33q1.58,23,10.47,35,10.9,14.64,34.43,14.64a41.71,41.71,0,0,0,25.82-8.33,33.74,33.74,0,0,0,13.49-21.24h25.55q-5.74,25.26-23,38.54T2960.77,1669.48Zm43.12-92.72q-1.15-21.39-10.62-33.3-10.48-13.2-30.72-13.21T2930,1545.47q-9.62,11.92-11.63,31.29Z"/><path class="cls-1" d="M3148.16,1556.23q-1.15-12.77-10.41-19.81t-24.91-7q-16.08,0-24.48,5.6t-8.4,16.36q0,8.18,5.88,12.34t23.4,8.33l26.7,6.32q22.4,5.46,32,15.07t9.51,26.55q0,22.82-16.44,36.17t-44.43,13.35q-32.44,0-48.38-12.85t-17.65-40.41h24.83q1.86,16.36,11.56,23.68t29.66,7.32q17.38,0,26.35-6.6t9-19.23q0-8-5.88-12.2t-23.69-8.33l-26.7-6.32q-21.68-5.17-30.86-14.5t-9.21-25.84q0-21.67,15.43-34.38t41.83-12.7q26.83,0,42.69,13.06t16.86,36Z"/><path class="cls-1" d="M3262.13,1665.18q-13.21,2-19.23,2-16.94,0-23.9-7.46t-7-25.69V1532.84h-21.24v-21.1H3212v-43.06h25.84v43.06h24.26v21.1h-24.26V1634a9.63,9.63,0,0,0,4.09,8.18q4.09,3,11,3h9.19Z"/><path class="cls-1" d="M3289.51,1511.74h24.54V1538a89.71,89.71,0,0,1,7-11.2q14.64-19.66,36-19.66a22.3,22.3,0,0,1,7.32,1.29v26.41l-5.31-.14q-21,0-32.37,12.56t-11.41,35.81v82.25h-25.84Z"/><path class="cls-1" d="M3393.32,1647.09q-19.74-22.39-19.74-58.71t19.74-58.85q19.73-22.39,51.6-22.39,32.15,0,51.82,22.39t19.67,58.85q0,36.31-19.67,58.71t-51.82,22.39Q3413.06,1669.48,3393.32,1647.09Zm84-15.79q12.06-15.93,12.06-42.92t-12.06-43q-12.06-16-32.44-16t-32.37,16q-12,16-12,43t12,42.92q12,15.93,32.37,15.93T3477.37,1631.3Z"/><path class="cls-1" d="M3632.32,1556.23q-1.15-12.77-10.41-19.81t-24.91-7q-16.08,0-24.48,5.6t-8.4,16.36q0,8.18,5.88,12.34t23.4,8.33l26.7,6.32q22.4,5.46,32,15.07t9.51,26.55q0,22.82-16.44,36.17t-44.43,13.35q-32.44,0-48.38-12.85t-17.65-40.41h24.83q1.86,16.36,11.56,23.68t29.66,7.32q17.38,0,26.35-6.6t9-19.23q0-8-5.88-12.2t-23.69-8.33l-26.7-6.32q-21.68-5.17-30.86-14.5t-9.21-25.84q0-21.67,15.43-34.38t41.83-12.7q26.83,0,42.69,13.06t16.86,36Z"/><path class="cls-1" d="M3810.56,1669.48q-22.54,0-35.74-12.06t-13.21-32.58q0-20.67,12.42-32.87t36.24-15.21l35.17-4.45a53.83,53.83,0,0,0,8.18-1.44,13.1,13.1,0,0,0,7.75-5.17,16.56,16.56,0,0,0,2.73-9.76v-1.29q0-12.34-9.33-19.31t-26-7q-15.93,0-24.9,7.39t-10.84,22h-23.83q1.86-25.26,17.8-38t45.64-12.7q28,0,42.63,12.13t14.64,35.38v84.4a8.44,8.44,0,0,0,2.37,6.24,8.63,8.63,0,0,0,6.39,2.37,28.29,28.29,0,0,0,3.37-.29q2.22-.29,4.81-.86v18.66a50.68,50.68,0,0,1-7.89,2.3,35.74,35.74,0,0,1-7,.86q-14.64,0-21.24-8-4.31-5.31-6.17-15.07a55.64,55.64,0,0,1-6.6,6.89Q3838.54,1669.48,3810.56,1669.48Zm53.54-65v-16.65a55.29,55.29,0,0,1-15.93,4.74l-23.68,3.45q-18.66,2.58-27.27,8.68a19.28,19.28,0,0,0-8.61,16.58q0,12.92,7,19.88t20,7q20.38,0,34.45-11.05,9.61-7.75,12.77-17.51a29,29,0,0,0,.86-5.89A89.69,89.69,0,0,0,3864.09,1604.46Z"/><path class="cls-1" d="M3932.67,1454.32h25.84v211h-25.84Z"/><path class="cls-1" d="M4076.14,1511.74h24.54v22.82l5.31-6.89q17.37-20.52,41.48-20.53,20.67,0,32.87,12.2a39.58,39.58,0,0,1,8.47,12.49l4.16-5.31q16.65-19.38,39.76-19.38,24.11,0,37.25,13.13t13.13,37.25v107.8h-25.84v-99q0-17.51-7.18-26.55t-21-9q-16.79,0-26.7,13.06t-9.9,35.31v86.27h-25.84V1560.11q0-14.35-6.53-21.89t-19-7.54q-17.22,0-28.21,14.64t-11,37.75v82.25h-25.84Z"/><path class="cls-1" d="M4330.52,1647.09q-19.74-22.39-19.74-58.71t19.74-58.85q19.73-22.39,51.6-22.39,32.15,0,51.82,22.39t19.67,58.85q0,36.31-19.67,58.71t-51.82,22.39Q4350.26,1669.48,4330.52,1647.09Zm84-15.79q12.06-15.93,12.06-42.92t-12.06-43q-12.06-16-32.44-16t-32.37,16q-12,16-12,43t12,42.92q12,15.93,32.37,15.93T4414.57,1631.3Z"/><path class="cls-1" d="M4481.56,1511.74h24.54v22.82l5.31-6.89q17.37-20.52,41.48-20.53,20.67,0,32.87,12.2a39.58,39.58,0,0,1,8.47,12.49l4.16-5.31q16.65-19.38,39.76-19.38,24.11,0,37.25,13.13t13.13,37.25v107.8h-25.84v-99q0-17.51-7.18-26.55t-21-9q-16.79,0-26.7,13.06t-9.9,35.31v86.27h-25.84V1560.11q0-14.35-6.53-21.89t-19-7.54q-17.22,0-28.21,14.64t-11,37.75v82.25h-25.84Z"/><path class="cls-1" d="M4787.55,1669.48q-32.58,0-51.24-20.67t-18.66-57.13q0-38.75,19.74-61.65t53-22.89q30.14,0,48.66,22.39t18.52,58.85l-.31,9.19H4745.11q1.58,23,10.47,35,10.9,14.64,34.43,14.64a41.71,41.71,0,0,0,25.82-8.33,33.74,33.74,0,0,0,13.49-21.24h25.55q-5.74,25.26-23,38.54T4787.55,1669.48Zm43.12-92.72q-1.15-21.39-10.62-33.3-10.48-13.2-30.72-13.21t-32.59,15.21q-9.62,11.92-11.63,31.29Z"/><path class="cls-1" d="M4887,1511.74h24.54v22.68l5.74-7.61q16.79-19.66,42.06-19.66t39.19,13.78q13.78,13.78,13.78,39.19v105.21h-25.84v-96.46q0-20.24-7.82-29.21t-25.33-9q-18.66,0-29.57,14.14t-10.91,38.25v82.25H4887Z"/><path class="cls-1" d="M5105.41,1665.18q-13.21,2-19.23,2-16.94,0-23.9-7.46t-7-25.69V1532.84h-21.24v-21.1h21.24v-43.06h25.84v43.06h24.26v21.1h-24.26V1634a9.63,9.63,0,0,0,4.09,8.18q4.09,3,11,3h9.19Z"/><path class="cls-1" d="M5140.19,1647.09q-19.74-22.39-19.74-58.71t19.74-58.85q19.73-22.39,51.6-22.39,32.15,0,51.82,22.39t19.67,58.85q0,36.31-19.67,58.71t-51.82,22.39Q5159.92,1669.48,5140.19,1647.09Zm84-15.79q12.06-15.93,12.06-42.92t-12.06-43q-12.06-16-32.44-16t-32.37,16q-12,16-12,43t12,42.92q12,15.93,32.37,15.93T5224.23,1631.3Z"/><path class="cls-1" d="M5430,1669.48q-30.86,0-49.09-23t-18.23-62.22q0-34.59,17.66-55.84t46.08-21.24q28.28,0,44.78,24l2,2.87v-79.66H5499v211h-24v-21l-3.3,4.74Q5455.83,1669.48,5430,1669.48Zm1.44-139.09q-21.68,0-31.72,13.85t-10,44q0,28.42,10.84,43.78t30.93,15.36q18.8,0,30.29-14.14t11.48-37.39q0-31.44-10.84-48.44T5431.43,1530.4Z"/><path class="cls-1" d="M5596,1669.48q-32.58,0-51.24-20.67t-18.66-57.13q0-38.75,19.74-61.65t53-22.89q30.14,0,48.66,22.39t18.52,58.85l-.31,9.19H5553.59q1.58,23,10.47,35,10.9,14.64,34.43,14.64a41.71,41.71,0,0,0,25.82-8.33,33.74,33.74,0,0,0,13.49-21.24h25.55q-5.74,25.26-23,38.54T5596,1669.48Zm43.12-92.72q-1.15-21.39-10.62-33.3-10.48-13.2-30.72-13.21t-32.59,15.21q-9.62,11.92-11.63,31.29Z"/><path class="cls-1" d="M5773.66,1511.74h24.54v21.82l1.29-1.87q16.65-24.54,43.78-24.54,30.14,0,47.73,20.74t17.58,56.05q0,40-17.73,62.8t-49.16,22.75q-26,0-41.34-20l-.86-1.15V1726h-25.84Zm66.74,135.36q20.24,0,30.72-15.29t10.48-44.57q0-28.85-10-42.7t-31-13.85q-21.39,0-31.22,15.65t-9.83,49.52q0,24.54,10.62,37.89T5840.4,1647.09Z"/><path class="cls-1" d="M5978.17,1669.48q-22.54,0-35.74-12.06t-13.21-32.58q0-20.67,12.42-32.87t36.24-15.21l35.17-4.45a53.83,53.83,0,0,0,8.18-1.44,13.1,13.1,0,0,0,7.75-5.17,16.56,16.56,0,0,0,2.73-9.76v-1.29q0-12.34-9.33-19.31t-26-7q-15.93,0-24.9,7.39t-10.84,22h-23.83q1.86-25.26,17.8-38t45.64-12.7q28,0,42.63,12.13t14.64,35.38v84.4a8.44,8.44,0,0,0,2.37,6.24,8.63,8.63,0,0,0,6.39,2.37,28.29,28.29,0,0,0,3.37-.29q2.22-.29,4.81-.86v18.66a50.68,50.68,0,0,1-7.89,2.3,35.74,35.74,0,0,1-7,.86q-14.64,0-21.24-8-4.31-5.31-6.17-15.07a55.64,55.64,0,0,1-6.6,6.89Q6006.16,1669.48,5978.17,1669.48Zm53.54-65v-16.65a55.29,55.29,0,0,1-15.93,4.74l-23.68,3.45q-18.66,2.58-27.27,8.68a19.28,19.28,0,0,0-8.61,16.58q0,12.92,7,19.88t20,7q20.38,0,34.45-11.05,9.61-7.75,12.77-17.51a29,29,0,0,0,.86-5.89A89.69,89.69,0,0,0,6031.71,1604.46Z"/><path class="cls-1" d="M6103.3,1511.74h24.54V1538a89.71,89.71,0,0,1,7-11.2q14.64-19.66,36-19.66a22.3,22.3,0,0,1,7.32,1.29v26.41l-5.31-.14q-21,0-32.37,12.56t-11.41,35.81v82.25H6103.3Z"/><path class="cls-1" d="M6252.54,1665.18q-13.21,2-19.23,2-16.94,0-23.9-7.46t-7-25.69V1532.84H6181.2v-21.1h21.24v-43.06h25.84v43.06h24.26v21.1h-24.26V1634a9.63,9.63,0,0,0,4.09,8.18q4.09,3,11,3h9.19Z"/><path class="cls-1" d="M6276.91,1454.32h26.41v29.28h-26.41Zm.29,57.41H6303v153.58h-25.84Z"/><path class="cls-1" d="M6343.76,1511.74h24.54V1538a89.71,89.71,0,0,1,7-11.2q14.64-19.66,36-19.66a22.3,22.3,0,0,1,7.32,1.29v26.41l-5.31-.14q-21,0-32.37,12.56t-11.41,35.81v82.25h-25.84Z"/><path class="cls-1" d="M44.14,881.33h92.29q30.71,0,48,15.43t17.3,42.7q0,30-17.3,46.94t-48,16.94q-40.34-.14-63.73.29v88.71H44.14ZM72.7,978.93h56.7q22.25,0,32.58-9.4T172.32,940q0-17.8-10.33-26.05t-32.58-8.25H72.7Z"/><path class="cls-1" d="M504.55,881.33h32.58l75.79,211H582.26l-21.5-61.15H476.51l-22.17,61.15H424.88Zm-19,124.59H552l-32.54-93.59h.09Z"/><path class="cls-1" d="M848.4,881.33h98.18q33.59,0,51.1,14.57t17.51,42.7q0,27.7-18.23,43.35a65.44,65.44,0,0,1-9.9,6.89l4.74,2.3q19.23,11.05,20,37.18l1.15,38.47q.29,9.47,2.44,13.64t8.33,7.18v4.59H988.54q-1.15-2.58-2.29-13.49t-1.72-24.26l-.64-16.65q-.58-19.66-9.61-28.06t-29.56-8.4H877v91H848.4ZM877,976.64h70.62q19.81,0,29-8.68t9.19-27.49q0-18.23-9.69-26.7t-30.65-8.47H877Z"/><path class="cls-1" d="M1441.87,1108.41l-31.58-24.83q-23.54,14.35-55.41,14.5-45.93,0-74.35-30.64T1252.12,987q0-50,28.42-80.67t74.35-30.72q46.22,0,74.57,30.72T1457.8,987q0,49.81-28.42,80.52l-2,2,5.89,4.74q21.1,16.94,22.39,18.09Zm-76.65-60.29L1379,1030.9l26.41,21.1,2.73-2.87q20.24-23.68,20.24-62.15t-20.24-62.37q-20.24-23.75-53.25-23.75t-53.11,23.75q-20.24,23.76-20.24,62.37t20.24,62.15q20.24,23.68,53.11,23.68,18.37-.29,32.73-7Z"/><path class="cls-1" d="M1864.39,1015q0,39-22,61.08t-61,22q-40.62,0-61.86-21.17T1698.32,1015V881.33h28.56v131.48q0,29.43,13.92,44.71t40.62,15.29q26.7,0,40.55-15.29t13.85-44.71V881.33h28.56Z"/><path class="cls-1" d="M2118.39,1092.33v-211h154.3v25.26H2147V971h114.83V996.3H2147v70.76h127.32v25.26Z"/><path class="cls-1" d="M2982.66,1014.68q-5.46,39-29.93,61.22t-61.94,22.18q-43.64,0-69.54-30.07t-25.91-81q0-51,26.91-81.17t72.27-30.21q35.74,0,58.71,18.37t27.56,50.67h-27.56q-4-21-19.45-32.37t-39.69-11.41q-31.72,0-50.53,23.32t-18.8,62.8q0,41.91,17.44,63.87t50.6,22q24.54,0,40.76-15.14t21.53-43Z"/><path class="cls-1" d="M3225.75,1092.33v-211h154.3v25.26H3254.31V971h114.83V996.3H3254.31v70.76h127.32v25.26Z"/><path class="cls-1" d="M3651.57,1092.33h-27.7v-211h41.05l60.35,179.57h0l59.8-179.57h41.05v211h-27.7V913.77h-.1l-59.46,178.56h-27.56l-59.66-178h-.05Z"/><path class="cls-1" d="M4078.25,1092.33v-211h154.3v25.26H4106.81V971h114.83V996.3H4106.81v70.76h127.32v25.26Z"/><path class="cls-1" d="M4504.78,1092.33h-27.56v-211h34.31l105.64,171.47V881.33h27.56v211h-31.29L4504.78,920.19Z"/><path class="cls-1" d="M4948.4,906.59h-71.34V881.33H5048.3v25.26H4977v185.74H4948.4Z"/><path class="cls-1" d="M5283.5,1092.33v-211h154.3v25.26H5312.06V971h114.83V996.3H5312.06v70.76h127.32v25.26Z"/><path class="cls-1" d="M5685.92,881.33h98.18q33.59,0,51.1,14.57t17.51,42.7q0,27.7-18.23,43.35a65.44,65.44,0,0,1-9.9,6.89l4.74,2.3q19.23,11.05,20,37.18l1.15,38.47q.29,9.47,2.44,13.64t8.32,7.18v4.59h-35.12q-1.15-2.58-2.29-13.49t-1.72-24.26l-.64-16.65q-.57-19.66-9.61-28.06t-29.56-8.4h-67.75v91h-28.56Zm28.56,95.31h70.62q19.81,0,29-8.68t9.19-27.49q0-18.23-9.69-26.7t-30.65-8.47h-68.47Z"/><path class="cls-1" d="M6104.85,881.33h28.56v211h-28.56Z"/><path class="cls-1" d="M6405.5,1067.43q-28.42-30.64-28.42-80.45t28.42-80.67q28.42-30.71,74.35-30.72,46.22,0,74.57,30.72T6582.77,987q0,49.81-28.35,80.45t-74.57,30.64Q6433.92,1098.07,6405.5,1067.43Zm127.6-18.3q20.24-23.68,20.24-62.15t-20.24-62.37q-20.24-23.75-53.25-23.75t-53.11,23.75Q6406.5,948.36,6406.5,987t20.24,62.15q20.24,23.68,53.11,23.68T6533.1,1049.12Z"/><rect class="cls-1" y="1247.62" width="6568.02" height="41.52"/></g></g></svg>