<svg xmlns="http://www.w3.org/2000/svg" viewBox="0 0 16 16.03"><defs><style>.cls-1{fill:#54b2b6;}.cls-2{fill:#fff;}</style></defs><title>icono</title><g id="Capa_2" data-name="Capa 2"><g id="Capa_1-2" data-name="Capa 1"><rect class="cls-1" width="16" height="16"/><path class="cls-2" d="M3.24,5.62a2,2,0,0,0,.48-.18s0-.07,0-.06a2,2,0,0,0-.48.2A0,0,0,0,0,3.24,5.62Z"/><path class="cls-2" d="M6.63,5.47a.06.06,0,0,0,0-.08.4.4,0,0,0-.2-.05.73.73,0,0,1-.25-.09c-.07,0-.11.06-.06.11S6.5,5.63,6.63,5.47Z"/><path class="cls-2" d="M2.26,10.69s.12,0,.09-.07a1.43,1.43,0,0,0-.27-.32s-.08,0-.05.06A1.35,1.35,0,0,0,2.26,10.69Z"/><path class="cls-2" d="M3.42,11.36c0-.06-.14,0-.11.07a.45.45,0,0,0,.68.25.07.07,0,0,0,0-.13A.57.57,0,0,1,3.42,11.36Z"/><path class="cls-2" d="M5.49,11.63c-.14,0-.29,0-.43,0s-.05,0,0,.05a.42.42,0,0,0,.22.13.3.3,0,0,0,.29-.1A.07.07,0,0,0,5.49,11.63Z"/><path class="cls-2" d="M6.86,11a.84.84,0,0,1-.47.33.06.06,0,0,0,0,.12A.67.67,0,0,0,7,11.09C7,11,6.91,11,6.86,11Z"/><path class="cls-2" d="M7.83,10.18a.26.26,0,0,0-.08.14,1.25,1.25,0,0,0,0,.15s.06.06.08,0l.06-.11a.77.77,0,0,0,.07-.13A.06.06,0,0,0,7.83,10.18Z"/><path class="cls-2" d="M4.07,11.23c.12,0,.34.11.41-.05S4.36,11,4.24,11a1.7,1.7,0,0,1-.43-.08.08.08,0,0,0-.09.12A.69.69,0,0,0,4.07,11.23Z"/><path class="cls-2" d="M2.94,9.4h0Z"/><path class="cls-2" d="M3,9.47v0Z"/><path class="cls-2" d="M1.91,8.47l0-.12a.07.07,0,0,0-.14,0,.75.75,0,0,0,.1.38c0,.06.14,0,.12,0l-.05-.24a9.07,9.07,0,0,0,2.15.07s0,0-.07,0a3.69,3.69,0,0,1-.61.27l0,0a.24.24,0,0,0-.17,0l-.08,0L3,9,3,9c-.21.06-.42.13-.63.2l0,0A.56.56,0,0,1,2.19,9c0-.06-.13,0-.13,0a.46.46,0,0,0,.06.23c0,.07.11.19.2.17a.09.09,0,0,0,.07-.07.13.13,0,0,0,0-.09l.54-.14a.21.21,0,0,0,0,.1.41.41,0,0,0,0,.11l0,.09,0,.07a.23.23,0,0,0,.23.12l.08,0h0a.31.31,0,0,0,.2-.11.3.3,0,0,0,0-.27,1.59,1.59,0,0,0,.73-.27c-.16.27-.36.58-.38.62-.16.23-.32.46-.5.68a3.75,3.75,0,0,1-.29.35l0,0a1.34,1.34,0,0,1-.15-.18.09.09,0,0,0-.15.07.8.8,0,0,0,.28.49.15.15,0,0,0,.18-.24l-.08-.06a3.4,3.4,0,0,0,.35-.39,9.91,9.91,0,0,0,.59-.81s.16-.24.28-.45A.33.33,0,0,0,4.53,9s0,.08,0,.09a2.66,2.66,0,0,1-.11.75l0-.06a.22.22,0,0,0-.34,0,.52.52,0,0,0-.16.35.4.4,0,0,0,.21.25.36.36,0,0,0,.23,0l.07,0h0a.23.23,0,0,0,.09-.07c-.08.23-.18.45-.28.68h0a6.36,6.36,0,0,0,.4-.94,7.63,7.63,0,0,1,0,1,26.9,26.9,0,0,1-1.16,5h.23a29.24,29.24,0,0,0,1.18-5.09,7,7,0,0,0,0-1.2l0,.07a4.65,4.65,0,0,1,.27,1.58s0,0,0,0A3.73,3.73,0,0,0,5.06,10c-.06-.19-.12-.38-.18-.57s0-.3-.05-.46c.09.14.19.28.29.41l.4.53a.22.22,0,0,0-.13.13c0,.06-.05.41.2.44a.32.32,0,0,0,.16,0,.27.27,0,0,0,.11-.07,1.89,1.89,0,0,1,.12.49H6l-.17.05a.86.86,0,0,0-.19.09.06.06,0,0,0,0,.1.27.27,0,0,0,.19,0H6a.64.64,0,0,0,.38-.09.14.14,0,0,0,0-.24.41.41,0,0,0-.31,0,1.79,1.79,0,0,0-.1-.54h0v0a.21.21,0,0,0,0-.1.24.24,0,0,0,0-.09.21.21,0,0,0-.13-.16l-.09,0c-.1-.21-.21-.4-.32-.58A4.28,4.28,0,0,0,5,8.78a3.86,3.86,0,0,1,.75.71,7,7,0,0,1,.93,1.46,0,0,0,0,0,0,0A5.66,5.66,0,0,0,5.8,9.4a4.17,4.17,0,0,0-.58-.59l.29.1L5.72,9l.18.12a5.93,5.93,0,0,1,.51.4.24.24,0,0,0,.11.1A4.71,4.71,0,0,0,7.1,10l0,0L7,10.21s0,.11.07.09l.15-.08a.46.46,0,0,0,.15-.13.12.12,0,0,0-.19-.14L7.11,10l-.46-.41h0A.32.32,0,0,0,7,9.43.41.41,0,0,0,6.93,9a.23.23,0,0,0-.36,0l-.06.07a7.14,7.14,0,0,1-.82-.24,2,2,0,0,0-.5-.19,2,2,0,0,1-.25-.12l-.05-.05h0l0-.09a1.38,1.38,0,0,1,.19-.27A3.64,3.64,0,0,0,6,6.94h.19l.13,0a.3.3,0,0,0,.2-.33.37.37,0,0,0-.06-.15l0,0-.08-.07A.43.43,0,0,0,6,6.27a2.48,2.48,0,0,0,.08-.53l.07,0c.09,0,.28.08.32,0s-.08-.17-.18-.16a1,1,0,0,1-.4,0,0,0,0,0,0,0,.08l.2.12a4.66,4.66,0,0,1-.13.59.31.31,0,0,0-.13.17.45.45,0,0,0,0,.12.55.55,0,0,0,0,.12c-.07.19-.16.38-.25.57a6.62,6.62,0,0,1-.4.73l0,0a4.85,4.85,0,0,0,.24-1,3.5,3.5,0,0,0-.18-1.76.3.3,0,0,0,.14-.06.07.07,0,0,0,0-.13.36.36,0,0,0-.19,0l-.26,0c-.08,0-.07.12,0,.13a1,1,0,0,0,.29,0,4.09,4.09,0,0,1-.18,3l-.06.07H4.72l0-.1a3.77,3.77,0,0,0,.08-.63,1.74,1.74,0,0,0-.09-.71l.1-.05a.32.32,0,0,0,.1-.13.37.37,0,0,0,0-.22l0-.13,0,.07h0l0-.07a.26.26,0,0,0-.08-.11.27.27,0,0,0-.2,0l-.07,0a3,3,0,0,0-.09-.4.48.48,0,0,0,.29,0,.12.12,0,0,0-.1-.22l-.26.07-.09,0c-.07,0-.09.12,0,.14l.13,0a3.21,3.21,0,0,1,.08.44l0,0,0,0-.07.07h0l0,0,0,.07a.32.32,0,0,0,.11.38l.11.05q0,.09,0,.18c0,.21,0,.43,0,.64s0,.26,0,.39h0a5.29,5.29,0,0,0-.61-1l-.13-.16a.31.31,0,0,0-.31-.48l-.11,0-.18-.15a.38.38,0,0,0,.17-.19A.09.09,0,0,0,3.22,6a.77.77,0,0,0-.4.32c-.07.08,0,.17.12.12l.17-.1.17.16a.32.32,0,0,0,.24.55l.11,0a4.35,4.35,0,0,1,.5.87l.12.26a3.67,3.67,0,0,1-.83-.58c-.42-.37-.78-.8-1.2-1.18a3.33,3.33,0,0,0,.23-.26s0-.1-.07-.06-.36.34-.53.52c0,0,0,.06,0,0a1.14,1.14,0,0,0,.32-.23c.42.43.81.88,1.26,1.27a3.4,3.4,0,0,0,.83.57l0,0-.05.07-.44-.09a1.9,1.9,0,0,1-.78-.35v0s0-.09,0,0a.23.23,0,0,0,0-.16A.21.21,0,0,0,3,7.58a.22.22,0,0,0-.3,0,1,1,0,0,0-.13.21h0l-.37-.26,0-.06a.39.39,0,0,0,.12-.37.12.12,0,0,0-.13-.07A.4.4,0,0,0,2,7.29a2.88,2.88,0,0,1-.21.29c-.1.13.08.3.2.2l.19-.18.37.28a.25.25,0,0,0,.12.34.24.24,0,0,0,.24,0l0,0,.05,0A2.1,2.1,0,0,0,4,8.5,15.06,15.06,0,0,1,1.91,8.47Zm4.55.71a.45.45,0,0,0-.07.16.25.25,0,0,0,0,0L6,9.08A3.81,3.81,0,0,0,6.46,9.18Zm-.9-1.81c.08-.17.17-.35.24-.53l0,.05.09,0a3.19,3.19,0,0,1-.6.86Zm-1-.47v0h0a2.18,2.18,0,0,1,0,1.19h0c0-.14,0-.29,0-.43S4.59,7.14,4.59,6.9ZM3.81,8.43A2.78,2.78,0,0,1,3,8.08.26.26,0,0,0,3,8L3,8a1.67,1.67,0,0,0,.65.34l.43.1.08,0,0,0A2.11,2.11,0,0,1,3.81,8.43Z"/><path class="cls-2" d="M3.52,9.1l0-.08a.26.26,0,0,0-.06-.08l.08,0a2.93,2.93,0,0,0,.63-.31l.08-.06h0a.32.32,0,0,0,0,.16.31.31,0,0,0,0,.07A1.66,1.66,0,0,1,3.52,9.1Z"/><path class="cls-2" d="M4.38,8.19c-.09-.15-.17-.31-.25-.47A3.15,3.15,0,0,0,3.66,7l0,0,.12.15c.24.32.41.68.64,1a.13.13,0,0,0,0,0v0H4.38Z"/><path class="cls-2" d="M4.56,10.09A.18.18,0,0,0,4.51,10h0l0,0h0a2.16,2.16,0,0,0,.14-.55V9.25q0,.23,0,.45A2.71,2.71,0,0,1,4.56,10.09Z"/><path class="cls-2" d="M5.35,9.37a5.36,5.36,0,0,1,.29.52h0c-.11-.16-.22-.31-.33-.47S5,9,4.86,8.79v0a0,0,0,0,0,0,0h0A4.9,4.9,0,0,1,5.35,9.37Z"/><path class="cls-2" d="M9.46,7.27a4.73,4.73,0,0,1-.69.33c-.11,0-.42.1-.69.15L7,7.95S7,8,7,8a6.85,6.85,0,0,0,.81-.14c.29-.05.84-.13,1-.17C9.54,7.45,9.47,7.31,9.46,7.27Z"/><path class="cls-2" d="M7.15,7.54A12.16,12.16,0,0,1,8.91,6.31c.24-.14.57-.3.84-.44a7.17,7.17,0,0,0,.9-.45s.09-.09,0,.32c0,.18.37-.42.39-.38a1.94,1.94,0,0,1,.14.68,2.2,2.2,0,0,0,.3-.78A.94.94,0,0,0,11.42,5s-.08-.14,0-.18.3-.16.2-.17-.13-.08-.42.09a4.31,4.31,0,0,1-1.25.54c-.42.12.68-.12.69-.1s-.8.52-1.18.75l-.54.29A16.14,16.14,0,0,0,7.17,7.48C7.07,7.52,7.15,7.54,7.15,7.54Z"/><path class="cls-2" d="M13.91,3a.26.26,0,0,0-.24,0c-.12.06-.19.36-.19.36a.59.59,0,0,0-.05-.13.57.57,0,0,0,0-.56A2.28,2.28,0,0,1,13,1.32a1.5,1.5,0,0,0-.32.8,2.35,2.35,0,0,0,.11.78v0c-.73-.06-1-.92-1-.92a1.44,1.44,0,0,0-.07,1.27c.27.79,1.25.79,1.11,1a2.37,2.37,0,0,1-.81.35c.11.42.82.52.82.52s0-.29.43-.62.61-.4.56-.94a.6.6,0,0,1,.15-.5Z"/><path class="cls-2" d="M9.53,7.24a.32.32,0,0,1,.26.15.32.32,0,0,0,.18.18A1.24,1.24,0,0,1,10,7.36a.33.33,0,0,1,.11-.07,1.43,1.43,0,0,1,.15.22.94.94,0,0,0,.5.29.84.84,0,0,1-.12-.25c-.05-.17-.23-.47-.22-.49s0,0,.08-.09a.45.45,0,0,0,.09-.13h-.1a.66.66,0,0,0-.19.06.62.62,0,0,0-.16-.11c-.12-.07-.3-.4-.33-.38a.59.59,0,0,0,0,.33.73.73,0,0,0,.22.38C10,7.22,9.53,7.24,9.53,7.24Z"/><path class="cls-2" d="M7.51,5.95a.12.12,0,0,0,.13-.13.16.16,0,0,0-.16-.14.15.15,0,0,0-.14.15C7.35,5.9,7.43,5.95,7.51,5.95Z"/><path class="cls-2" d="M8.72,4.74a.19.19,0,0,0,.15,0,.16.16,0,0,0,0-.22.13.13,0,0,0-.2,0,.17.17,0,0,0,0,.23l0,0a3.44,3.44,0,0,1-.22.75c-.09.21-.19.42-.26.57s0,0,0,0A5.7,5.7,0,0,0,8.72,4.74Z"/><path class="cls-2" d="M9.69,8.69l0,0c.1-.09.12-.21.06-.27s-.17,0-.27.13-.14.15-.09.21.14,0,.24,0c.14.18.48.75.64,1s.25.45.31.56l0,0a4.63,4.63,0,0,0-.31-.55C10.12,9.32,9.82,8.88,9.69,8.69Z"/><path class="cls-2" d="M13.49,7.08c-.05,0,0,.16,0,.26a4.93,4.93,0,0,0-.9.94c-.09.1-.2.2-.26.27s0,.09,0,.1l.26-.31a5.42,5.42,0,0,1,.91-1c.09.1.21.13.27.08s0-.14-.13-.24S13.55,7,13.49,7.08Z"/><path class="cls-2" d="M12.46,7.13c-.06,0-.15,0-.21.11A5.75,5.75,0,0,1,11,6.66s0,0,0,0a6.09,6.09,0,0,0,1.27.58c-.05.09,0,.17,0,.21s.1-.07.15-.17S12.52,7.16,12.46,7.13Z"/><path class="cls-2" d="M11.3,8.35l.11-.08s0-.08,0-.07l-.12,0-.14,0a.06.06,0,0,0,0,.11.26.26,0,0,0,.15,0A1.54,1.54,0,0,1,11.4,9a4.74,4.74,0,0,1,0,.59s0,0,0,0a5.25,5.25,0,0,0,0-.57A1.63,1.63,0,0,0,11.3,8.35Z"/><path class="cls-2" d="M8.41,8.74s-.13,0-.18.13a4.35,4.35,0,0,1-1-.21,2.32,2.32,0,0,1-.68-.38H6.52a3.69,3.69,0,0,0,.71.41,3.9,3.9,0,0,0,1,.21c0,.08,0,.15,0,.17s.12-.06.18-.16S8.45,8.76,8.41,8.74Z"/></g></g></svg>