<svg xmlns="http://www.w3.org/2000/svg" viewBox="0 0 12.27 11.02"><defs><style>.cls-1{fill:#54b1b6;}</style></defs><title>fondo2Recurso 1</title><g id="Capa_2" data-name="Capa 2"><g id="Capa_1-2" data-name="Capa 1"><path class="cls-1" d="M1.5,4.3A2,2,0,0,0,2,4.12S2,4,2,4.05a2,2,0,0,0-.48.2A0,0,0,0,0,1.5,4.3Z"/><path class="cls-1" d="M4.88,4.15a.06.06,0,0,0,0-.08A.4.4,0,0,0,4.67,4a.73.73,0,0,1-.25-.09c-.07,0-.11.06-.06.11S4.75,4.31,4.88,4.15Z"/><path class="cls-1" d="M.52,9.36s.12,0,.09-.07A1.43,1.43,0,0,0,.34,9S.26,9,.29,9A1.35,1.35,0,0,0,.52,9.36Z"/><path class="cls-1" d="M1.68,10c0-.06-.14,0-.11.07a.45.45,0,0,0,.68.25.07.07,0,0,0,0-.13A.57.57,0,0,1,1.68,10Z"/><path class="cls-1" d="M3.75,10.31c-.14,0-.29,0-.43,0s-.05,0,0,.05a.42.42,0,0,0,.22.13.3.3,0,0,0,.29-.1A.07.07,0,0,0,3.75,10.31Z"/><path class="cls-1" d="M5.12,9.7a.84.84,0,0,1-.47.33.06.06,0,0,0,0,.12.67.67,0,0,0,.58-.38C5.28,9.69,5.17,9.63,5.12,9.7Z"/><path class="cls-1" d="M6.09,8.86A.26.26,0,0,0,6,9a1.25,1.25,0,0,0,0,.15s.06.06.08,0l.06-.11a.77.77,0,0,0,.07-.13A.06.06,0,0,0,6.09,8.86Z"/><path class="cls-1" d="M2.33,9.91c.12,0,.34.11.41-.05s-.12-.22-.24-.22a1.7,1.7,0,0,1-.43-.08A.08.08,0,0,0,2,9.68.69.69,0,0,0,2.33,9.91Z"/><path class="cls-1" d="M1.19,8.08h0Z"/><path class="cls-1" d="M1.24,8.15v0Z"/><path class="cls-1" d="M.16,7l0-.11a.07.07,0,0,0-.14,0,.7.7,0,0,0,.1.37c0,.05.14,0,.12,0L.17,7a9.47,9.47,0,0,0,2.15.06s0,0-.07,0a3.78,3.78,0,0,1-.61.26l0,0a.25.25,0,0,0-.17,0l-.08,0-.08,0,0,0C1,7.57.8,7.63.59,7.71l0,0a.54.54,0,0,1-.1-.16c0-.06-.13,0-.13,0a.43.43,0,0,0,.06.22c0,.07.11.18.2.16a.08.08,0,0,0,.07-.07.13.13,0,0,0,0-.09l.54-.14a.19.19,0,0,0,0,.1.37.37,0,0,0,0,.1l0,.09,0,.07a.23.23,0,0,0,.23.11l.08,0h0a.31.31,0,0,0,.2-.11.28.28,0,0,0,0-.26,1.64,1.64,0,0,0,.73-.26c-.16.26-.36.56-.38.6-.16.22-.32.44-.5.65A3.65,3.65,0,0,1,1.35,9l0,0a1.29,1.29,0,0,1-.15-.17A.09.09,0,0,0,1,8.84a.76.76,0,0,0,.28.47.15.15,0,0,0,.18-.23L1.38,9a3.31,3.31,0,0,0,.35-.38,9.52,9.52,0,0,0,.6-.78s.16-.23.28-.43a.33.33,0,0,0,.18.07s0,.08,0,.09a2.45,2.45,0,0,1-.11.72l0-.06a.22.22,0,0,0-.34,0,.49.49,0,0,0-.16.33.39.39,0,0,0,.21.24.38.38,0,0,0,.23,0l.07,0h0a.23.23,0,0,0,.09-.07c-.08.22-.18.43-.28.65h0a6,6,0,0,0,.4-.9,7,7,0,0,1,0,1c-.05.48-.14,1-.24,1.5l0,.08.22,0,0-.09c.11-.53.2-1.05.27-1.56a6.4,6.4,0,0,0,0-1.15l0,.07A4.28,4.28,0,0,1,3.45,9.8s0,0,0,0a3.43,3.43,0,0,0-.16-1.35c-.06-.18-.12-.36-.18-.54s0-.29-.05-.44l.29.4.4.51a.21.21,0,0,0-.13.12c0,.06-.05.39.2.42A.34.34,0,0,0,4,8.9a.27.27,0,0,0,.11-.07,1.75,1.75,0,0,1,.12.47h0l-.17.05-.19.09a.06.06,0,0,0,0,.1.28.28,0,0,0,.19,0h.17A.66.66,0,0,0,4.6,9.5a.13.13,0,0,0,0-.23.43.43,0,0,0-.31,0,1.65,1.65,0,0,0-.1-.52h0v0a.2.2,0,0,0,0-.1.22.22,0,0,0,0-.09.2.2,0,0,0-.13-.16L4,8.38c-.1-.2-.21-.38-.32-.55a4.1,4.1,0,0,0-.39-.53A3.79,3.79,0,0,1,4,8,6.64,6.64,0,0,1,5,9.37a0,0,0,0,0,0,0A5.37,5.37,0,0,0,4.05,7.9a4.08,4.08,0,0,0-.58-.57l.29.1L4,7.5l.18.11A5.9,5.9,0,0,1,4.67,8a.23.23,0,0,0,.11.09,4.7,4.7,0,0,0,.57.42l0,0-.09.11s0,.11.07.09l.15-.08a.46.46,0,0,0,.15-.12.12.12,0,0,0-.19-.14l-.05.08-.46-.39h0a.32.32,0,0,0,.35-.17.38.38,0,0,0-.1-.39.24.24,0,0,0-.36,0l-.06.07a7.38,7.38,0,0,1-.82-.23,2.06,2.06,0,0,0-.5-.18,2,2,0,0,1-.25-.11L3.14,7h0l0-.09a1.33,1.33,0,0,1,.19-.26,3.5,3.5,0,0,0,.86-1.15h.19l.13,0a.29.29,0,0,0,.18-.17.27.27,0,0,0,0-.15.34.34,0,0,0-.06-.14l0,0L4.59,5a.44.44,0,0,0-.34-.07,2.28,2.28,0,0,0,.08-.5l.07,0c.09,0,.28.07.32,0s-.08-.16-.18-.15a1.07,1.07,0,0,1-.4,0,0,0,0,0,0,0,.07l.2.12a4.3,4.3,0,0,1-.13.56A.3.3,0,0,0,4,5.1a.41.41,0,0,0,0,.12.5.5,0,0,0,0,.12c-.07.19-.16.37-.25.55a6.26,6.26,0,0,1-.4.7l0,0a4.48,4.48,0,0,0,.24-1A3.22,3.22,0,0,0,3.4,3.93a.31.31,0,0,0,.14-.06.07.07,0,0,0,0-.12.37.37,0,0,0-.19,0l-.26,0c-.08,0-.07.11,0,.13a1,1,0,0,0,.29,0,3.76,3.76,0,0,1-.18,2.84l-.06.07H3l0-.09A3.47,3.47,0,0,0,3,6.13,1.6,1.6,0,0,0,3,5.45l.1-.05a.31.31,0,0,0,.1-.12.34.34,0,0,0,0-.21l0-.12,0,.07h0l0-.07a.25.25,0,0,0-.08-.1.28.28,0,0,0-.2,0l-.07,0a2.78,2.78,0,0,0-.09-.39.5.5,0,0,0,.29,0c.14-.07,0-.25-.1-.21l-.26.07-.09,0a.07.07,0,0,0,0,.13l.13,0a3,3,0,0,1,.08.42l0,0,0,0-.07.07h0l0,0,0,.07a.29.29,0,0,0,0,.16.31.31,0,0,0,.13.2l.11,0c0,.06,0,.12,0,.18s0,.41,0,.61,0,.25,0,.37h0a5,5,0,0,0-.61-.95L2,5.52a.3.3,0,0,0-.31-.46l-.11,0-.18-.15a.37.37,0,0,0,.17-.18.09.09,0,0,0-.1-.12.77.77,0,0,0-.4.31c-.07.08,0,.16.12.11L1.37,5l.17.15a.3.3,0,0,0,.24.53l.11,0a4.13,4.13,0,0,1,.5.83l.12.25a3.68,3.68,0,0,1-.83-.55C1.27,5.78.91,5.37.49,5a3.24,3.24,0,0,0,.23-.25s0-.1-.07-.06S.29,5,.12,5.2c0,0,0,.06,0,0A1.14,1.14,0,0,0,.48,5c.42.41.81.84,1.26,1.22a3.41,3.41,0,0,0,.83.54l0,0-.05.07L2.11,6.8a1.94,1.94,0,0,1-.78-.34v0s0-.09,0,0a.21.21,0,0,0,0-.15.2.2,0,0,0-.08-.13.22.22,0,0,0-.3,0,.91.91,0,0,0-.13.2h0L.49,6.15l0-.05a.36.36,0,0,0,.12-.36.12.12,0,0,0-.13-.07.4.4,0,0,0-.24.21,2.76,2.76,0,0,1-.21.28c-.1.12.08.29.2.19l.19-.18.37.27A.23.23,0,0,0,1,6.76a.25.25,0,0,0,.24,0l0,0,.05,0a2.16,2.16,0,0,0,1,.32A15.71,15.71,0,0,1,.16,7Zm4.55.68a.42.42,0,0,0-.07.15.23.23,0,0,0,0,0l-.37-.29A4,4,0,0,0,4.71,7.68ZM3.81,6c.08-.16.17-.33.24-.51l0,0,.09,0a3.06,3.06,0,0,1-.6.82Zm-1-.45v0h0a2,2,0,0,1,0,1.14h0c0-.14,0-.28,0-.41S2.84,5.73,2.85,5.5Z"/><path class="cls-1" d="M2.07,7a2.84,2.84,0,0,1-.81-.34.24.24,0,0,0,0-.06l0,0a1.69,1.69,0,0,0,.65.33l.43.1.08,0,0,0A2.2,2.2,0,0,1,2.07,7Z"/><path class="cls-1" d="M1.78,7.61l0-.08a.25.25,0,0,0-.06-.08l.08,0a3,3,0,0,0,.63-.29l.08-.05h0a.29.29,0,0,0,0,.22A1.69,1.69,0,0,1,1.78,7.61Z"/><path class="cls-1" d="M2.64,6.74c-.09-.14-.17-.3-.25-.45a3,3,0,0,0-.46-.69l0,0,.12.14c.24.31.41.65.63,1a.12.12,0,0,0,0,0v0H2.64Z"/><path class="cls-1" d="M2.82,8.55a.17.17,0,0,0-.05-.12h0l0,0h0a2,2,0,0,0,.14-.53V7.75q0,.22,0,.43A2.5,2.5,0,0,1,2.82,8.55Z"/><path class="cls-1" d="M3.61,7.87a5.08,5.08,0,0,1,.29.5h0l-.33-.45c-.15-.2-.28-.4-.42-.61v0h.06A4.7,4.7,0,0,1,3.61,7.87Z"/><path class="cls-1" d="M7.72,5.95A4.73,4.73,0,0,1,7,6.28c-.11,0-.42.1-.69.15l-1.09.2s0,0,0,0a6.85,6.85,0,0,0,.81-.14c.29-.05.84-.13,1-.17C7.8,6.13,7.73,6,7.72,5.95Z"/><path class="cls-1" d="M5.41,6.22A12.16,12.16,0,0,1,7.17,5c.24-.14.57-.3.84-.44a7.17,7.17,0,0,0,.9-.45S9,4,8.9,4.42c0,.18.37-.42.39-.38a1.94,1.94,0,0,1,.14.68,2.2,2.2,0,0,0,.3-.78.94.94,0,0,0-.06-.28s-.08-.14,0-.18.3-.16.2-.17-.13-.08-.42.09a4.31,4.31,0,0,1-1.25.54c-.42.12.68-.12.69-.1s-.8.52-1.18.75l-.54.29A16.14,16.14,0,0,0,5.43,6.16C5.32,6.2,5.41,6.22,5.41,6.22Z"/><path class="cls-1" d="M12.17,1.7a.26.26,0,0,0-.24,0c-.12.06-.19.36-.19.36a.59.59,0,0,0-.05-.13.57.57,0,0,0,0-.56A2.28,2.28,0,0,1,11.26,0a1.5,1.5,0,0,0-.32.8,2.35,2.35,0,0,0,.11.78v0c-.73-.06-1-.92-1-.92A1.44,1.44,0,0,0,10,2c.27.79,1.25.79,1.11,1a2.37,2.37,0,0,1-.81.35c.11.42.82.52.82.52s0-.29.43-.62.61-.4.56-.94a.6.6,0,0,1,.15-.5Z"/><path class="cls-1" d="M7.79,5.92A.32.32,0,0,1,8,6.07a.32.32,0,0,0,.18.18A1.24,1.24,0,0,1,8.3,6,.33.33,0,0,1,8.41,6a1.43,1.43,0,0,1,.15.22.94.94,0,0,0,.5.29.84.84,0,0,1-.12-.25c-.05-.17-.23-.47-.22-.49s0,0,.08-.09a.45.45,0,0,0,.09-.13H8.8a.66.66,0,0,0-.19.06.62.62,0,0,0-.16-.11c-.12-.07-.3-.4-.33-.38a.59.59,0,0,0,0,.33.73.73,0,0,0,.22.38C8.22,5.9,7.79,5.92,7.79,5.92Z"/><path class="cls-1" d="M5.77,4.62a.12.12,0,0,0,.13-.13.16.16,0,0,0-.16-.14.15.15,0,0,0-.14.15C5.6,4.58,5.69,4.62,5.77,4.62Z"/><path class="cls-1" d="M7,3.42a.19.19,0,0,0,.15,0,.16.16,0,0,0,0-.22.13.13,0,0,0-.2,0,.17.17,0,0,0,0,.23l0,0a3.44,3.44,0,0,1-.22.75c-.09.21-.19.42-.26.57s0,0,0,0A5.7,5.7,0,0,0,7,3.42Z"/><path class="cls-1" d="M8,7.37l0,0c.1-.09.12-.21.06-.27s-.17,0-.27.13-.14.15-.09.21.14,0,.24,0c.14.18.48.75.64,1s.25.45.31.56l0,0a4.63,4.63,0,0,0-.31-.55C8.37,8,8.07,7.56,8,7.37Z"/><path class="cls-1" d="M11.74,5.76c-.05,0,0,.16,0,.26a4.93,4.93,0,0,0-.9.94c-.09.1-.2.2-.26.27s0,.09,0,.1L10.89,7a5.42,5.42,0,0,1,.91-1c.09.1.21.13.27.08s0-.14-.13-.24S11.8,5.71,11.74,5.76Z"/><path class="cls-1" d="M10.71,5.8c-.06,0-.15,0-.21.11a5.75,5.75,0,0,1-1.23-.57s0,0,0,0a6.09,6.09,0,0,0,1.27.58c-.05.09,0,.17,0,.21s.1-.07.15-.17S10.78,5.84,10.71,5.8Z"/><path class="cls-1" d="M9.56,7,9.67,7s0-.08,0-.07l-.12,0L9.36,7a.06.06,0,0,0,0,.11.26.26,0,0,0,.15,0,1.54,1.54,0,0,1,.12.65,4.74,4.74,0,0,1,0,.59s0,0,0,0a5.25,5.25,0,0,0,0-.57A1.63,1.63,0,0,0,9.56,7Z"/><path class="cls-1" d="M6.67,7.42s-.13,0-.18.13a4.35,4.35,0,0,1-1-.21A2.32,2.32,0,0,1,4.86,7H4.78a3.69,3.69,0,0,0,.71.41,3.9,3.9,0,0,0,1,.21c0,.08,0,.15,0,.17s.12-.06.18-.16S6.71,7.44,6.67,7.42Z"/></g></g></svg>