<svg xmlns="http://www.w3.org/2000/svg" viewBox="0 0 12.27 10.72"><defs><style>.cls-1{fill:#d1d2d4;}</style></defs><title>BSRecurso 3</title><g id="Capa_2" data-name="Capa 2"><g id="Capa_1-2" data-name="Capa 1"><path class="cls-1" d="M1.5,4.3A2,2,0,0,0,2,4.12S2,4,2,4.05a2,2,0,0,0-.48.2A0,0,0,0,0,1.5,4.3Z"/><path class="cls-1" d="M4.88,4.15a.06.06,0,0,0,0-.08A.4.4,0,0,0,4.67,4a.73.73,0,0,1-.25-.09c-.07,0-.11.06-.06.11S4.75,4.31,4.88,4.15Z"/><path class="cls-1" d="M.52,9.36s.12,0,.09-.07A1.43,1.43,0,0,0,.34,9S.26,9,.29,9A1.35,1.35,0,0,0,.52,9.36Z"/><path class="cls-1" d="M1.68,10c0-.06-.14,0-.11.07a.45.45,0,0,0,.68.25.07.07,0,0,0,0-.13A.57.57,0,0,1,1.68,10Z"/><path class="cls-1" d="M3.75,10.31c-.14,0-.29,0-.43,0s-.05,0,0,.05a.42.42,0,0,0,.22.13.3.3,0,0,0,.29-.1A.07.07,0,0,0,3.75,10.31Z"/><path class="cls-1" d="M5.12,9.7a.84.84,0,0,1-.47.33.06.06,0,0,0,0,.12.67.67,0,0,0,.58-.38C5.28,9.69,5.17,9.63,5.12,9.7Z"/><path class="cls-1" d="M6.09,8.86A.26.26,0,0,0,6,9a1.25,1.25,0,0,0,0,.15s.06.06.08,0l.06-.11a.77.77,0,0,0,.07-.13A.06.06,0,0,0,6.09,8.86Z"/><path class="cls-1" d="M2.33,9.91c.12,0,.34.11.41-.05s-.12-.22-.24-.22a1.7,1.7,0,0,1-.43-.08A.08.08,0,0,0,2,9.68.69.69,0,0,0,2.33,9.91Z"/><path class="cls-1" d="M1.19,8.08h0Z"/><path class="cls-1" d="M1.24,8.15v0Z"/><path class="cls-1" d="M.16,7.15.14,7A.07.07,0,0,0,0,7a.75.75,0,0,0,.1.38c0,.06.14,0,.12,0L.17,7.16a9.07,9.07,0,0,0,2.15.07s0,0-.07,0a3.69,3.69,0,0,1-.61.27l0,0a.24.24,0,0,0-.17,0l-.08,0-.08,0,0,0C1,7.74.8,7.8.59,7.88l0,0a.56.56,0,0,1-.1-.17c0-.06-.13,0-.13,0a.46.46,0,0,0,.06.23c0,.07.11.19.2.17A.09.09,0,0,0,.66,8a.13.13,0,0,0,0-.09l.54-.14a.21.21,0,0,0,0,.1.41.41,0,0,0,0,.11l0,.09,0,.07a.23.23,0,0,0,.23.12l.08,0h0a.31.31,0,0,0,.2-.11.3.3,0,0,0,0-.27,1.59,1.59,0,0,0,.73-.27c-.16.27-.36.58-.38.62-.16.23-.32.46-.5.68a3.75,3.75,0,0,1-.29.35l0,0A1.34,1.34,0,0,1,1.15,9,.09.09,0,0,0,1,9.06a.8.8,0,0,0,.28.49.15.15,0,0,0,.18-.24l-.08-.06a3.4,3.4,0,0,0,.35-.39A9.91,9.91,0,0,0,2.33,8s.16-.24.28-.45a.33.33,0,0,0,.18.07s0,.08,0,.09a2.66,2.66,0,0,1-.11.75l0-.06a.22.22,0,0,0-.34,0,.52.52,0,0,0-.16.35A.4.4,0,0,0,2.36,9a.36.36,0,0,0,.23,0l.07,0h0a.23.23,0,0,0,.09-.07c-.08.23-.18.45-.28.68h0a6.36,6.36,0,0,0,.4-.94,7.63,7.63,0,0,1,0,1c0,.34-.09.7-.15,1.06H3c.07-.37.13-.74.17-1.1a7,7,0,0,0,0-1.2l0,.07a4.65,4.65,0,0,1,.27,1.58s0,0,0,0a3.73,3.73,0,0,0-.16-1.41c-.06-.19-.12-.38-.18-.57s0-.3-.05-.46c.09.14.19.28.29.41l.4.53a.22.22,0,0,0-.13.13c0,.06-.05.41.2.44a.32.32,0,0,0,.16,0,.27.27,0,0,0,.11-.07,1.89,1.89,0,0,1,.12.49h0l-.17.05a.86.86,0,0,0-.19.09.06.06,0,0,0,0,.1.27.27,0,0,0,.19,0h.17a.64.64,0,0,0,.38-.09.14.14,0,0,0,0-.24.41.41,0,0,0-.31,0A1.79,1.79,0,0,0,4.16,9h0V9a.21.21,0,0,0,0-.1.24.24,0,0,0,0-.09.21.21,0,0,0-.13-.16L4,8.59c-.1-.21-.21-.4-.32-.58a4.28,4.28,0,0,0-.39-.55A3.86,3.86,0,0,1,4,8.17,7,7,0,0,1,5,9.62a0,0,0,0,0,0,0,5.66,5.66,0,0,0-.92-1.54,4.17,4.17,0,0,0-.58-.59l.29.1L4,7.67l.18.12a5.93,5.93,0,0,1,.51.4.24.24,0,0,0,.11.1,4.71,4.71,0,0,0,.57.44l0,0-.09.12s0,.11.07.09l.15-.08a.46.46,0,0,0,.15-.13.12.12,0,0,0-.19-.14l-.05.08L4.91,8.3h0a.32.32,0,0,0,.35-.18.41.41,0,0,0-.1-.41.23.23,0,0,0-.36,0l-.06.07a7.14,7.14,0,0,1-.82-.24,2,2,0,0,0-.5-.19,2,2,0,0,1-.25-.12l-.05-.05h0l0-.09a1.38,1.38,0,0,1,.19-.27,3.64,3.64,0,0,0,.86-1.2h.19l.13,0a.3.3,0,0,0,.2-.33.37.37,0,0,0-.06-.15l0,0L4.59,5a.43.43,0,0,0-.34-.08,2.48,2.48,0,0,0,.08-.53l.07,0c.09,0,.28.08.32,0s-.08-.17-.18-.16a1,1,0,0,1-.4,0,0,0,0,0,0,0,.08l.2.12A4.66,4.66,0,0,1,4.15,5,.31.31,0,0,0,4,5.16a.45.45,0,0,0,0,.12A.55.55,0,0,0,4,5.4c-.07.19-.16.38-.25.57a6.62,6.62,0,0,1-.4.73l0,0a4.85,4.85,0,0,0,.24-1A3.5,3.5,0,0,0,3.4,3.94a.3.3,0,0,0,.14-.06.07.07,0,0,0,0-.13.36.36,0,0,0-.19,0l-.26,0c-.08,0-.07.12,0,.13a1,1,0,0,0,.29,0,4.09,4.09,0,0,1-.18,3L3.11,7H3l0-.1A3.77,3.77,0,0,0,3,6.23,1.74,1.74,0,0,0,3,5.52l.1-.05a.32.32,0,0,0,.1-.13.37.37,0,0,0,0-.22l0-.13,0,.07h0l0-.07a.26.26,0,0,0-.08-.11.27.27,0,0,0-.2,0l-.07,0a3,3,0,0,0-.09-.4A.48.48,0,0,0,3,4.4a.12.12,0,0,0-.1-.22l-.26.07-.09,0c-.07,0-.09.12,0,.14l.13,0a3.21,3.21,0,0,1,.08.44l0,0,0,0L2.62,5h0l0,0,0,.07a.32.32,0,0,0,.11.38l.11.05q0,.09,0,.18c0,.21,0,.43,0,.64s0,.26,0,.39h0a5.29,5.29,0,0,0-.61-1L2,5.59a.31.31,0,0,0-.31-.48l-.11,0L1.41,5a.38.38,0,0,0,.17-.19.09.09,0,0,0-.1-.13.77.77,0,0,0-.4.32c-.07.08,0,.17.12.12L1.37,5l.17.16a.32.32,0,0,0,.24.55l.11,0a4.35,4.35,0,0,1,.5.87l.12.26a3.67,3.67,0,0,1-.83-.58c-.42-.37-.78-.8-1.2-1.18a3.33,3.33,0,0,0,.23-.26s0-.1-.07-.06-.36.34-.53.52c0,0,0,.06,0,0a1.14,1.14,0,0,0,.32-.23c.42.43.81.88,1.26,1.27a3.4,3.4,0,0,0,.83.57l0,0L2.54,7l-.44-.09a1.9,1.9,0,0,1-.78-.35v0s0-.09,0,0a.23.23,0,0,0,0-.16.21.21,0,0,0-.08-.14.22.22,0,0,0-.3,0,1,1,0,0,0-.13.21h0L.49,6.25l0-.06a.39.39,0,0,0,.12-.37.12.12,0,0,0-.13-.07A.4.4,0,0,0,.28,6a2.88,2.88,0,0,1-.21.29c-.1.13.08.3.2.2l.19-.18.37.28A.25.25,0,0,0,1,6.89a.24.24,0,0,0,.24,0l0,0,.05,0a2.1,2.1,0,0,0,1,.34A15.06,15.06,0,0,1,.16,7.15Zm4.55.71A.45.45,0,0,0,4.64,8a.25.25,0,0,0,0,0l-.37-.3A3.81,3.81,0,0,0,4.71,7.86ZM3.81,6c.08-.17.17-.35.24-.53l0,.05.09,0a3.19,3.19,0,0,1-.6.86Zm-1-.47v0h0a2.18,2.18,0,0,1,0,1.19h0c0-.14,0-.29,0-.43S2.84,5.82,2.85,5.58ZM2.07,7.11a2.78,2.78,0,0,1-.81-.35.26.26,0,0,0,0-.06l0,0A1.67,1.67,0,0,0,1.94,7l.43.1.08,0,0,0A2.11,2.11,0,0,1,2.07,7.11Z"/><path class="cls-1" d="M1.78,7.78l0-.08a.26.26,0,0,0-.06-.08l.08,0a2.93,2.93,0,0,0,.63-.31l.08-.06h0a.32.32,0,0,0,0,.16.31.31,0,0,0,0,.07A1.66,1.66,0,0,1,1.78,7.78Z"/><path class="cls-1" d="M2.64,6.87c-.09-.15-.17-.31-.25-.47a3.15,3.15,0,0,0-.46-.72l0,0,.12.15c.24.32.41.68.64,1a.13.13,0,0,0,0,0v0H2.64Z"/><path class="cls-1" d="M2.82,8.76a.18.18,0,0,0-.05-.12h0l0,0h0A2.16,2.16,0,0,0,2.86,8V7.93q0,.23,0,.45A2.71,2.71,0,0,1,2.82,8.76Z"/><path class="cls-1" d="M3.61,8a5.36,5.36,0,0,1,.29.52h0c-.11-.16-.22-.31-.33-.47s-.28-.42-.42-.63v0a0,0,0,0,0,0,0h0A4.9,4.9,0,0,1,3.61,8Z"/><path class="cls-1" d="M7.72,5.95A4.73,4.73,0,0,1,7,6.28c-.11,0-.42.1-.69.15l-1.09.2s0,0,0,0a6.85,6.85,0,0,0,.81-.14c.29-.05.84-.13,1-.17C7.8,6.13,7.73,6,7.72,5.95Z"/><path class="cls-1" d="M5.41,6.22A12.16,12.16,0,0,1,7.17,5c.24-.14.57-.3.84-.44a7.17,7.17,0,0,0,.9-.45S9,4,8.9,4.42c0,.18.37-.42.39-.38a1.94,1.94,0,0,1,.14.68,2.2,2.2,0,0,0,.3-.78.94.94,0,0,0-.06-.28s-.08-.14,0-.18.3-.16.2-.17-.13-.08-.42.09a4.31,4.31,0,0,1-1.25.54c-.42.12.68-.12.69-.1s-.8.52-1.18.75l-.54.29A16.14,16.14,0,0,0,5.43,6.16C5.32,6.2,5.41,6.22,5.41,6.22Z"/><path class="cls-1" d="M12.17,1.7a.26.26,0,0,0-.24,0c-.12.06-.19.36-.19.36a.59.59,0,0,0-.05-.13.57.57,0,0,0,0-.56A2.28,2.28,0,0,1,11.26,0a1.5,1.5,0,0,0-.32.8,2.35,2.35,0,0,0,.11.78v0c-.73-.06-1-.92-1-.92A1.44,1.44,0,0,0,10,2c.27.79,1.25.79,1.11,1a2.37,2.37,0,0,1-.81.35c.11.42.82.52.82.52s0-.29.43-.62.61-.4.56-.94a.6.6,0,0,1,.15-.5Z"/><path class="cls-1" d="M7.78,5.92A.32.32,0,0,1,8,6.07a.32.32,0,0,0,.18.18A1.24,1.24,0,0,1,8.3,6,.33.33,0,0,1,8.41,6a1.43,1.43,0,0,1,.15.22.94.94,0,0,0,.5.29.84.84,0,0,1-.12-.25c-.05-.17-.23-.47-.22-.49s0,0,.08-.09a.45.45,0,0,0,.09-.13H8.8a.66.66,0,0,0-.19.06.62.62,0,0,0-.16-.11c-.12-.07-.3-.4-.33-.38a.59.59,0,0,0,0,.33.73.73,0,0,0,.22.38C8.22,5.9,7.78,5.92,7.78,5.92Z"/><path class="cls-1" d="M5.77,4.62a.12.12,0,0,0,.13-.13.16.16,0,0,0-.16-.14.15.15,0,0,0-.14.15C5.6,4.58,5.69,4.62,5.77,4.62Z"/><path class="cls-1" d="M7,3.42a.19.19,0,0,0,.15,0,.16.16,0,0,0,0-.22.13.13,0,0,0-.2,0,.17.17,0,0,0,0,.23l0,0a3.44,3.44,0,0,1-.22.75c-.09.21-.19.42-.26.57s0,0,0,0A5.7,5.7,0,0,0,7,3.42Z"/><path class="cls-1" d="M8,7.37l0,0c.1-.09.12-.21.06-.27s-.17,0-.27.13-.14.15-.09.21.14,0,.24,0c.14.18.48.75.64,1s.25.45.31.56l0,0a4.63,4.63,0,0,0-.31-.55C8.37,8,8.07,7.56,8,7.37Z"/><path class="cls-1" d="M11.74,5.76c-.05,0,0,.16,0,.26a4.93,4.93,0,0,0-.9.94c-.09.1-.2.2-.26.27s0,.09,0,.1L10.89,7a5.42,5.42,0,0,1,.91-1c.09.1.21.13.27.08s0-.14-.13-.24S11.8,5.71,11.74,5.76Z"/><path class="cls-1" d="M10.71,5.8c-.06,0-.15,0-.21.11a5.75,5.75,0,0,1-1.23-.57s0,0,0,0a6.09,6.09,0,0,0,1.27.58c-.05.09,0,.17,0,.21s.1-.07.15-.17S10.78,5.84,10.71,5.8Z"/><path class="cls-1" d="M9.56,7,9.67,7s0-.08,0-.07l-.12,0L9.36,7a.06.06,0,0,0,0,.11.26.26,0,0,0,.15,0,1.54,1.54,0,0,1,.12.65,4.74,4.74,0,0,1,0,.59s0,0,0,0a5.25,5.25,0,0,0,0-.57A1.63,1.63,0,0,0,9.56,7Z"/><path class="cls-1" d="M6.67,7.42s-.13,0-.18.13a4.35,4.35,0,0,1-1-.21A2.32,2.32,0,0,1,4.86,7H4.78a3.69,3.69,0,0,0,.71.41,3.9,3.9,0,0,0,1,.21c0,.08,0,.15,0,.17s.12-.06.18-.16S6.71,7.44,6.67,7.42Z"/></g></g></svg>