<svg xmlns="http://www.w3.org/2000/svg" xmlns:xlink="http://www.w3.org/1999/xlink" viewBox="0 0 12.89 20.93"><defs><style>.cls-1{fill:none;}.cls-2{clip-path:url(#clip-path);}.cls-3{fill:#d1d2d4;}</style><clipPath id="clip-path" transform="translate(-5.92 -1.32)"><rect class="cls-1" width="25" height="16"/></clipPath></defs><title>2Recurso 4</title><g id="Capa_2" data-name="Capa 2"><g id="Capa_1-2" data-name="Capa 1"><g class="cls-2"><path class="cls-3" d="M8,5.62a2,2,0,0,0,.48-.18s0-.07,0-.06a2,2,0,0,0-.48.2A0,0,0,0,0,8,5.62Z" transform="translate(-5.92 -1.32)"/><path class="cls-3" d="M11.42,5.47a.06.06,0,0,0,0-.08.4.4,0,0,0-.2-.05A.73.73,0,0,1,11,5.26c-.07,0-.11.06-.06.11S11.29,5.63,11.42,5.47Z" transform="translate(-5.92 -1.32)"/><path class="cls-3" d="M7.05,10.69s.12,0,.09-.07a1.43,1.43,0,0,0-.27-.32s-.08,0-.05.06A1.35,1.35,0,0,0,7.05,10.69Z" transform="translate(-5.92 -1.32)"/><path class="cls-3" d="M8.21,11.36c0-.06-.14,0-.11.07a.45.45,0,0,0,.68.25.07.07,0,0,0,0-.13A.57.57,0,0,1,8.21,11.36Z" transform="translate(-5.92 -1.32)"/><path class="cls-3" d="M10.28,11.63c-.14,0-.29,0-.43,0s-.05,0,0,.05a.42.42,0,0,0,.22.13.3.3,0,0,0,.29-.1A.07.07,0,0,0,10.28,11.63Z" transform="translate(-5.92 -1.32)"/><path class="cls-3" d="M11.65,11a.84.84,0,0,1-.47.33.06.06,0,0,0,0,.12.67.67,0,0,0,.58-.38C11.82,11,11.7,11,11.65,11Z" transform="translate(-5.92 -1.32)"/><path class="cls-3" d="M12.62,10.18a.26.26,0,0,0-.08.14,1.25,1.25,0,0,0,0,.15s.06.06.08,0l.06-.11a.77.77,0,0,0,.07-.13A.06.06,0,0,0,12.62,10.18Z" transform="translate(-5.92 -1.32)"/><path class="cls-3" d="M8.86,11.23c.12,0,.34.11.41-.05S9.15,11,9,11a1.7,1.7,0,0,1-.43-.08.08.08,0,0,0-.09.12A.69.69,0,0,0,8.86,11.23Z" transform="translate(-5.92 -1.32)"/><path class="cls-3" d="M7.73,9.4h0Z" transform="translate(-5.92 -1.32)"/><path class="cls-3" d="M7.77,9.47v0Z" transform="translate(-5.92 -1.32)"/><path class="cls-3" d="M12,9.94,11.9,10l-.46-.41h0a.32.32,0,0,0,.35-.18.41.41,0,0,0-.1-.41.23.23,0,0,0-.36,0l-.06.07a7.14,7.14,0,0,1-.82-.24,2,2,0,0,0-.5-.19,2,2,0,0,1-.25-.12l-.05-.05h0l0-.09a1.38,1.38,0,0,1,.19-.27,3.64,3.64,0,0,0,.86-1.2H11l.13,0a.3.3,0,0,0,.2-.33.37.37,0,0,0-.06-.15l0,0-.08-.07a.43.43,0,0,0-.34-.08,2.48,2.48,0,0,0,.08-.53l.07,0c.09,0,.28.08.32,0s-.08-.17-.18-.16a1,1,0,0,1-.4,0,0,0,0,0,0,0,.08l.2.12a4.66,4.66,0,0,1-.13.59.31.31,0,0,0-.13.17.45.45,0,0,0,0,.12.55.55,0,0,0,0,.12c-.07.19-.16.38-.25.57A6.62,6.62,0,0,1,9.9,8l0,0a4.84,4.84,0,0,0,.24-1,3.5,3.5,0,0,0-.18-1.76.3.3,0,0,0,.14-.06.07.07,0,0,0,0-.13.36.36,0,0,0-.19,0l-.26,0c-.08,0-.07.12,0,.13a1,1,0,0,0,.29,0,4.09,4.09,0,0,1-.18,3l-.06.07H9.51l0-.1a3.77,3.77,0,0,0,.08-.63,1.74,1.74,0,0,0-.09-.71l.1-.05a.32.32,0,0,0,.1-.13.37.37,0,0,0,0-.22l0-.13,0,.07h0l0-.07a.26.26,0,0,0-.08-.11.27.27,0,0,0-.2,0l-.07,0a3,3,0,0,0-.09-.4.48.48,0,0,0,.29,0,.12.12,0,0,0-.1-.22l-.26.07-.09,0c-.07,0-.09.12,0,.14l.13,0a3.21,3.21,0,0,1,.08.44l0,0,0,0-.07.07h0l0,0,0,.07a.32.32,0,0,0,.11.38l.11.05q0,.09,0,.18c0,.21,0,.43,0,.64s0,.26,0,.39h0a5.3,5.3,0,0,0-.61-1l-.13-.16a.31.31,0,0,0-.31-.48l-.11,0-.18-.15a.38.38,0,0,0,.17-.19A.09.09,0,0,0,8,6a.77.77,0,0,0-.4.32c-.07.08,0,.17.12.12l.17-.1.17.16a.32.32,0,0,0,.24.55l.11,0a4.35,4.35,0,0,1,.5.87l.12.26a3.67,3.67,0,0,1-.83-.58c-.42-.37-.78-.8-1.2-1.18a3.34,3.34,0,0,0,.23-.26s0-.1-.07-.06-.36.34-.53.52c0,0,0,.06,0,0A1.14,1.14,0,0,0,7,6.4c.42.43.81.88,1.26,1.27a3.4,3.4,0,0,0,.83.57l0,0-.05.07-.44-.09a1.9,1.9,0,0,1-.78-.35v0s0-.09,0,0a.23.23,0,0,0,0-.16.21.21,0,0,0-.08-.14.22.22,0,0,0-.3,0,1,1,0,0,0-.13.21h0L7,7.57l0-.06a.39.39,0,0,0,.12-.37.12.12,0,0,0-.13-.07.4.4,0,0,0-.24.22,2.88,2.88,0,0,1-.21.29c-.1.13.08.3.2.2L7,7.59l.37.28a.25.25,0,0,0,.12.34.24.24,0,0,0,.24,0l0,0,.05,0a2.1,2.1,0,0,0,1,.34,15.06,15.06,0,0,1-2.12,0l0-.12a.07.07,0,0,0-.14,0,.75.75,0,0,0,.1.38c0,.06.14,0,.12,0L6.7,8.49a9.07,9.07,0,0,0,2.15.07s0,0-.07,0a3.69,3.69,0,0,1-.61.27l0,0a.24.24,0,0,0-.17,0l-.08,0L7.79,9l0,0c-.21.06-.42.13-.63.2l0,0A.56.56,0,0,1,7,9c0-.06-.13,0-.13,0a.46.46,0,0,0,.06.23c0,.07.11.19.2.17a.09.09,0,0,0,.07-.07.13.13,0,0,0,0-.09l.54-.14a.21.21,0,0,0,0,.1.41.41,0,0,0,0,.11l0,.09,0,.07A.23.23,0,0,0,8,9.58l.08,0h0a.31.31,0,0,0,.2-.11.3.3,0,0,0,0-.27,1.59,1.59,0,0,0,.73-.27c-.16.27-.36.58-.38.62-.16.23-.32.46-.5.68a3.76,3.76,0,0,1-.29.35l0,0a1.34,1.34,0,0,1-.15-.18.09.09,0,0,0-.15.07.8.8,0,0,0,.28.49A.15.15,0,0,0,8,10.63l-.08-.06a3.4,3.4,0,0,0,.35-.39,9.91,9.91,0,0,0,.59-.81s.16-.24.28-.45A.33.33,0,0,0,9.32,9s0,.08,0,.09a2.66,2.66,0,0,1-.11.75l0-.06a.22.22,0,0,0-.34,0,.52.52,0,0,0-.16.35.4.4,0,0,0,.21.25.36.36,0,0,0,.23,0l.07,0h0a.23.23,0,0,0,.09-.07c-.08.23-.18.45-.28.68H9a6.36,6.36,0,0,0,.4-.94,7.63,7.63,0,0,1,0,1c-.47,4.36-3.12,10.28-3.48,11.1a.12.12,0,0,0,.22.1c.38-.86,3-6.72,3.51-11.25a7,7,0,0,0,0-1.2l0,.07A4.65,4.65,0,0,1,10,11.39s0,0,0,0A3.73,3.73,0,0,0,9.85,10c-.06-.19-.12-.38-.18-.57s0-.3-.05-.46c.09.14.19.28.29.41l.4.53a.22.22,0,0,0-.13.13c0,.06-.05.41.2.44a.32.32,0,0,0,.16,0,.27.27,0,0,0,.11-.07,1.89,1.89,0,0,1,.12.49h0l-.17.05a.86.86,0,0,0-.19.09.06.06,0,0,0,0,.1.27.27,0,0,0,.19,0h.17a.64.64,0,0,0,.38-.09.14.14,0,0,0,0-.24.41.41,0,0,0-.31,0,1.79,1.79,0,0,0-.1-.54h0v0a.21.21,0,0,0,0-.1.24.24,0,0,0,0-.09.21.21,0,0,0-.13-.16l-.09,0c-.1-.21-.21-.4-.32-.58a4.28,4.28,0,0,0-.39-.55,3.86,3.86,0,0,1,.75.71,7,7,0,0,1,.93,1.46,0,0,0,0,0,0,0,5.65,5.65,0,0,0-.92-1.54A4.17,4.17,0,0,0,10,8.81l.29.1.22.07.18.12a5.93,5.93,0,0,1,.51.4.24.24,0,0,0,.11.1,4.72,4.72,0,0,0,.57.44l0,0-.09.12s0,.11.07.09l.15-.08a.46.46,0,0,0,.15-.13A.12.12,0,0,0,12,9.94ZM10.34,7.37c.08-.17.17-.35.24-.53l0,.05.09,0a3.19,3.19,0,0,1-.6.86ZM8.6,8.43a2.78,2.78,0,0,1-.81-.35.26.26,0,0,0,0-.06l0,0a1.67,1.67,0,0,0,.65.34l.43.1.08,0,0,0A2.11,2.11,0,0,1,8.6,8.43Zm-.29.67,0-.08a.26.26,0,0,0-.06-.08l.08,0a2.93,2.93,0,0,0,.63-.31L9,8.54H9A.32.32,0,0,0,9,8.7a.31.31,0,0,0,0,.07A1.66,1.66,0,0,1,8.31,9.1ZM9.36,7.61c0-.24,0-.47,0-.71v0h0a2.18,2.18,0,0,1,0,1.19h0C9.37,7.9,9.36,7.75,9.36,7.61Zm-.19.58C9.08,8,9,7.88,8.92,7.72A3.15,3.15,0,0,0,8.45,7l0,0,.12.15c.24.32.41.68.64,1a.13.13,0,0,0,0,0v0H9.17Zm.18,1.9A.18.18,0,0,0,9.3,10h0l0,0h0a2.16,2.16,0,0,0,.14-.55V9.25q0,.23,0,.45A2.71,2.71,0,0,1,9.35,10.09Zm.79-.72a5.36,5.36,0,0,1,.29.52h0c-.11-.16-.22-.31-.33-.47S9.79,9,9.65,8.79v0a0,0,0,0,0,0,0h0A4.9,4.9,0,0,1,10.14,9.37Zm1,0a.25.25,0,0,0,0,0l-.37-.3a3.82,3.82,0,0,0,.45.1A.45.45,0,0,0,11.18,9.34Z" transform="translate(-5.92 -1.32)"/><path class="cls-3" d="M14.25,7.27a4.73,4.73,0,0,1-.69.33c-.11,0-.42.1-.69.15l-1.09.2s0,0,0,0a6.85,6.85,0,0,0,.81-.14c.29-.05.84-.13,1-.17C14.33,7.45,14.26,7.31,14.25,7.27Z" transform="translate(-5.92 -1.32)"/><path class="cls-3" d="M11.94,7.54A12.16,12.16,0,0,1,13.7,6.31c.24-.14.57-.3.84-.44a7.17,7.17,0,0,0,.9-.45s.09-.09,0,.32c0,.18.37-.42.39-.38A1.94,1.94,0,0,1,16,6a2.2,2.2,0,0,0,.3-.78A.94.94,0,0,0,16.21,5s-.08-.14,0-.18.3-.16.2-.17-.13-.08-.42.09a4.31,4.31,0,0,1-1.25.54c-.42.12.68-.12.69-.1s-.8.52-1.18.75l-.54.29A16.14,16.14,0,0,0,12,7.48C11.86,7.52,11.94,7.54,11.94,7.54Z" transform="translate(-5.92 -1.32)"/><path class="cls-3" d="M18.7,3a.26.26,0,0,0-.24,0c-.12.06-.19.36-.19.36a.59.59,0,0,0-.05-.13.57.57,0,0,0,0-.56,2.28,2.28,0,0,1-.41-1.37,1.5,1.5,0,0,0-.32.8,2.35,2.35,0,0,0,.11.78v0c-.73-.06-1-.92-1-.92a1.44,1.44,0,0,0-.07,1.27c.27.79,1.25.79,1.11,1a2.37,2.37,0,0,1-.81.35c.11.42.82.52.82.52s0-.29.43-.62.61-.4.56-.94a.6.6,0,0,1,.15-.5Z" transform="translate(-5.92 -1.32)"/><path class="cls-3" d="M14.32,7.24a.32.32,0,0,1,.26.15.32.32,0,0,0,.18.18,1.24,1.24,0,0,1,.08-.22.33.33,0,0,1,.11-.07,1.43,1.43,0,0,1,.15.22.94.94,0,0,0,.5.29.84.84,0,0,1-.12-.25c-.05-.17-.23-.47-.22-.49s0,0,.08-.09a.45.45,0,0,0,.09-.13h-.1a.66.66,0,0,0-.19.06A.62.62,0,0,0,15,6.78c-.12-.07-.3-.4-.33-.38a.59.59,0,0,0,0,.33.73.73,0,0,0,.22.38C14.75,7.22,14.32,7.24,14.32,7.24Z" transform="translate(-5.92 -1.32)"/><path class="cls-3" d="M12.3,5.95a.12.12,0,0,0,.13-.13.16.16,0,0,0-.16-.14.15.15,0,0,0-.14.15C12.14,5.9,12.22,5.95,12.3,5.95Z" transform="translate(-5.92 -1.32)"/><path class="cls-3" d="M13.51,4.74a.19.19,0,0,0,.15,0,.16.16,0,0,0,0-.22.13.13,0,0,0-.2,0,.17.17,0,0,0,0,.23l0,0a3.44,3.44,0,0,1-.22.75c-.09.21-.19.42-.26.57s0,0,0,0A5.7,5.7,0,0,0,13.51,4.74Z" transform="translate(-5.92 -1.32)"/><path class="cls-3" d="M14.48,8.69l0,0c.1-.09.12-.21.06-.27s-.17,0-.27.13-.14.15-.09.21.14,0,.24,0c.14.18.48.75.64,1s.25.45.31.56l0,0a4.63,4.63,0,0,0-.31-.55C14.91,9.32,14.61,8.88,14.48,8.69Z" transform="translate(-5.92 -1.32)"/><path class="cls-3" d="M18.28,7.08c-.05,0,0,.16,0,.26a4.93,4.93,0,0,0-.9.94c-.09.1-.2.2-.26.27s0,.09,0,.1l.26-.31a5.42,5.42,0,0,1,.91-1c.09.1.21.13.27.08s0-.14-.13-.24S18.34,7,18.28,7.08Z" transform="translate(-5.92 -1.32)"/><path class="cls-3" d="M17.25,7.13c-.06,0-.15,0-.21.11a5.75,5.75,0,0,1-1.23-.57s0,0,0,0A6.09,6.09,0,0,0,17,7.26c-.05.09,0,.17,0,.21s.1-.07.15-.17S17.31,7.16,17.25,7.13Z" transform="translate(-5.92 -1.32)"/><path class="cls-3" d="M16.09,8.35l.11-.08s0-.08,0-.07l-.12,0-.14,0a.06.06,0,0,0,0,.11.26.26,0,0,0,.15,0,1.54,1.54,0,0,1,.12.65,4.74,4.74,0,0,1,0,.59s0,0,0,0a5.25,5.25,0,0,0,0-.57A1.63,1.63,0,0,0,16.09,8.35Z" transform="translate(-5.92 -1.32)"/><path class="cls-3" d="M13.2,8.74s-.13,0-.18.13a4.35,4.35,0,0,1-1-.21,2.32,2.32,0,0,1-.68-.38h-.08a3.69,3.69,0,0,0,.71.41,3.9,3.9,0,0,0,1,.21c0,.08,0,.15,0,.17s.12-.06.18-.16S13.24,8.76,13.2,8.74Z" transform="translate(-5.92 -1.32)"/></g></g></g></svg>